<?xml version="1.0" encoding="UTF-8" standalone="no"?>
<!-- Created with Inkscape (http://www.inkscape.org/) -->

<svg
   xmlns:dc="http://purl.org/dc/elements/1.1/"
   xmlns:cc="http://creativecommons.org/ns#"
   xmlns:rdf="http://www.w3.org/1999/02/22-rdf-syntax-ns#"
   xmlns:svg="http://www.w3.org/2000/svg"
   xmlns="http://www.w3.org/2000/svg"
   xmlns:sodipodi="http://sodipodi.sourceforge.net/DTD/sodipodi-0.dtd"
   xmlns:inkscape="http://www.inkscape.org/namespaces/inkscape"
   width="100"
   height="100"
   id="svg4097"
   version="1.1"
   inkscape:version="0.48.4 r9939"
   sodipodi:docname="Logo.svg">
  <defs
     id="defs4099" />
  <sodipodi:namedview
     id="base"
     pagecolor="#ffffff"
     bordercolor="#666666"
     borderopacity="1.0"
     inkscape:pageopacity="0.0"
     inkscape:pageshadow="2"
     inkscape:zoom="11.2"
     inkscape:cx="44.284054"
     inkscape:cy="55.257965"
     inkscape:document-units="px"
     inkscape:current-layer="layer3"
     showgrid="false"
     inkscape:window-width="1920"
     inkscape:window-height="1031"
     inkscape:window-x="0"
     inkscape:window-y="25"
     inkscape:window-maximized="1" />
  <metadata
     id="metadata4102">
    <rdf:RDF>
      <cc:Work
         rdf:about="">
        <dc:format>image/svg+xml</dc:format>
        <dc:type
           rdf:resource="http://purl.org/dc/dcmitype/StillImage" />
        <dc:title></dc:title>
      </cc:Work>
    </rdf:RDF>
  </metadata>
  <g
     inkscape:label="Layer 1"
     inkscape:groupmode="layer"
     id="layer1"
     transform="translate(0,-952.36218)">
    <path
       sodipodi:type="arc"
       style="fill:#ececec;fill-opacity:1"
       id="path4615"
       sodipodi:cx="0"
       sodipodi:cy="0.49997419"
       sodipodi:rx="38.133259"
       sodipodi:ry="37.880722"
       d="m 38.133259,0.49997419 a 38.133259,37.880722 0 1 1 -76.266518,0 38.133259,37.880722 0 1 1 76.266518,0 z"
       transform="translate(51.012704,1002.3647)" />
    <path
       style="fill:#ff7500;fill-opacity:1"
       d="m 48.718202,1044.8705 c -14.292069,-0.6686 -27.340383,-8.4241 -34.72227,-20.6404 -2.593553,-4.2926 -4.7762033,-10.3309 -5.5769033,-15.4306 -0.4594801,-2.9249 -0.4560384,-10.19283 0.00544,-12.94121 2.2697173,-13.49728 10.4889423,-24.89659 22.4435453,-31.12689 14.779394,-7.70229 32.661646,-6.09888 45.915855,4.11744 7.955753,6.13219 13.448904,14.92577 15.651042,25.05447 0.543757,2.50111 0.641473,3.79532 0.641473,8.49689 0,4.7082 -0.09723,5.9953 -0.644466,8.511 -3.669262,16.8835 -16.509927,29.6556 -33.311276,33.1372 -1.945116,0.4036 -3.187371,0.5355 -7.70932,0.8229 -0.623832,0.033 -1.836046,0.033 -2.693811,-7e-4 l 0,-10e-5 z"
       id="path5125"
       inkscape:connector-curvature="0" />
    <path
       style="fill:#ddff00;fill-opacity:0"
       d="m 52.293478,1031.7717 c -0.840804,-0.1676 -3.46354,-0.3146 -5.828301,-0.3267 l -4.299567,-0.022 -0.0806,-4.1085 -0.0806,-4.1085 -0.12386,3.9174 -0.12386,3.9174 -1.037635,0 c -1.236051,0 -7.744834,-1.1119 -8.212929,-1.4012 -0.179936,-0.1112 -1.285804,-0.27 -2.457487,-0.3527 -1.171683,-0.083 -2.364345,-0.3448 -2.650352,-0.5821 -0.398186,-0.3306 -0.520022,-1.8382 -0.520022,-6.4351 0,-5.6439 0.05711,-6.1159 0.953862,-7.8835 0.524623,-1.0341 0.955612,-2.0521 0.95776,-2.2623 0.0023,-0.2102 0.670453,-2.102 1.485135,-4.2041 1.16725,-3.0116 1.652841,-3.8477 2.290801,-3.9439 0.704366,-0.1063 0.809869,-0.3794 0.811902,-2.102 0.0019,-1.6603 0.98307,-4.43848 6.078002,-17.21118 3.341616,-8.3772 6.237462,-15.39312 6.435213,-15.59087 0.224606,-0.22461 4.752075,2.26447 12.063403,6.63217 l 11.703856,6.9917 0.0042,8.217 0.0042,8.2169 -1.520575,1.07578 -1.520576,1.0758 0,3.5906 0,3.5906 1.528735,0.4581 1.528735,0.458 0,10.9953 0,10.9953 -2.006464,0.2029 c -3.718442,0.3759 -13.841556,0.5081 -15.382894,0.2009 z m 15.000709,-0.9574 1.624281,-0.2026 0,-10.2376 0,-10.2375 -1.541702,-0.6056 -1.541699,-0.6056 0.10851,-5.6629 0.108513,-5.66278 1.441406,0.085 1.441402,0.085 -0.103759,-7.325 -0.103763,-7.3251 -10.957943,-6.5803 c -6.026869,-3.6192 -11.057361,-6.4809 -11.178872,-6.3594 -0.291146,0.2911 -0.278376,5.9851 0.02208,9.8436 l 0.238423,3.062 2.689898,1.1437 c 1.479445,0.629 2.750322,1.325 2.824173,1.5465 0.07385,0.2216 -2.448804,3.9898 -5.605898,8.3739 -3.793165,5.2674 -5.740173,8.29968 -5.740173,8.93998 0,1.1001 -0.129171,1.2149 2.860632,-2.5419 1.218872,-1.53148 2.373502,-2.73218 2.565845,-2.66798 0.20219,0.067 0.336159,5.00268 0.317583,11.69938 l -0.03213,11.5829 0.870326,-0.3157 c 1.091139,-0.3958 7.29831,-0.2142 9.087276,0.2659 0.980522,0.2632 0.212201,0.3182 -2.877853,0.2063 -3.225448,-0.1168 -4.796238,0.01 -6.688215,0.5251 l -2.472719,0.6778 2.484194,0.2657 c 1.73125,0.1852 3.237138,0.088 4.968388,-0.3209 1.366307,-0.3227 3.258116,-0.5686 4.204021,-0.5464 l 1.719826,0.04 -1.62428,0.3906 -1.624281,0.3906 0,4.2715 0,4.2715 5.446117,-0.1337 c 2.995365,-0.074 6.177044,-0.2249 7.070398,-0.3363 z m -13.280882,-3.7938 0,-4.0202 -1.051006,0.2303 c -0.578052,0.1267 -1.265983,0.2966 -1.528734,0.3775 -0.335714,0.1034 -0.47773,1.1657 -0.47773,3.5734 l 0,3.4263 1.051005,0.1592 c 0.578053,0.088 1.265984,0.185 1.528735,0.2165 0.355536,0.043 0.47773,-0.971 0.47773,-3.963 z m -10.31896,-0.015 c 0,-2.3383 -0.137575,-3.5683 -0.382184,-3.4172 -0.420807,0.2601 -0.535708,6.4074 -0.127394,6.8156 0.476441,0.4765 0.509578,0.2555 0.509578,-3.3984 z m 6.497123,0.2545 c 0,-3.9057 0.03864,-3.8627 -3.470911,-3.8627 l -2.261844,0 0,3.6307 0,3.6307 2.866377,0 2.866378,0 z m -9.090233,-0.8806 0.108916,-3.8973 2.388648,-0.7026 2.388648,-0.7027 0,-10.6875 c 0,-5.8781 -0.07594,-10.68738 -0.168754,-10.68738 -0.09282,0 -0.993489,1.07488 -2.001499,2.38858 -1.008009,1.3138 -2.186291,2.7326 -2.618404,3.153 -0.432112,0.4204 -1.442521,1.5796 -2.245352,2.5759 -0.802831,0.9962 -1.612402,1.717 -1.799046,1.6017 -0.186644,-0.1154 -0.302827,-2.1344 -0.258184,-4.4868 l 0.08117,-4.277 0.123191,4.1418 0.12319,4.1417 1.515468,-1.9033 c 1.253937,-1.5749 1.515467,-2.1971 1.515467,-3.6051 0,-1.5825 0.387761,-2.2393 5.541663,-9.38508 3.047915,-4.2259 5.541104,-7.8211 5.54042,-7.9893 -6.88e-4,-0.1682 -1.204563,-0.7994 -2.675286,-1.4025 -2.595329,-1.0644 -2.675473,-1.1375 -2.722664,-2.4842 -0.02674,-0.7632 -0.155729,-3.2683 -0.286638,-5.567 l -0.238015,-4.1794 -5.441669,13.734 -5.441669,13.7341 -0.242593,5.73268 c -0.173436,4.0985 -0.410113,6.0223 -0.830215,6.7482 -1.021721,1.7656 -1.608418,0.9426 -1.63837,-2.2984 l -0.02698,-2.921 -0.791717,1.7198 c -0.474584,1.0309 -0.886131,2.9445 -1.027428,4.7773 -0.232341,3.0137 -0.52624,4.0129 -1.180309,4.0129 -0.183173,0 -0.407576,-0.387 -0.498673,-0.8599 -0.09109,-0.473 -0.189047,1.8304 -0.217673,5.1186 -0.05628,6.4648 -0.0635,6.4424 2.081223,6.4424 0.915647,0 0.9242,-0.035 0.9242,-3.8083 0,-3.3741 0.0843,-3.8536 0.739243,-4.2041 0.406582,-0.2175 0.836539,-0.3956 0.955459,-0.3956 0.118921,0 0.216217,1.5264 0.216217,3.3919 0,5.769 -0.131173,5.5618 3.953053,6.244 1.924741,0.3215 3.6225,0.6067 3.772797,0.6338 0.150297,0.027 0.32228,-1.7045 0.382184,-3.8479 z m -8.973665,-3.651 c -0.07873,-0.9984 -0.143143,-0.1815 -0.143143,1.8154 0,1.9969 0.06441,2.8138 0.143143,1.8154 0.07873,-0.9985 0.07873,-2.6323 0,-3.6308 z m -3.074939,-8.0258 c -0.09613,-0.3679 -0.17478,-0.067 -0.17478,0.6688 0,0.7357 0.07865,1.0367 0.17478,0.6688 0.09613,-0.3678 0.09613,-0.9698 0,-1.3376 z m 4.316902,-6.8793 c 0.0034,-1.8511 -0.151952,-3.153 -0.376332,-3.153 -0.229055,0 -0.379837,1.493 -0.376329,3.7262 0.004,2.5471 0.123098,3.5449 0.376329,3.1531 0.203765,-0.3153 0.373114,-1.9922 0.376332,-3.7263 z m 34.363642,-8.64798 c 0.343384,-0.4138 0.271515,-0.5699 -0.335385,-0.7286 -0.57563,-0.1505 -0.772424,-0.016 -0.772424,0.5266 0,0.8555 0.49111,0.9451 1.107809,0.202 z"
       id="path5138"
       inkscape:connector-curvature="0"
       sodipodi:nodetypes="cccccccscccsscscsssscccccccccccsccccccccccccccssscssssscsccsscccsscccccccscccsccsssccssscccccsccccssssccscccsssccsscccssscssssssscssscccsssssssssssssssss" />
  </g>
  <g
     inkscape:groupmode="layer"
     id="layer3"
     inkscape:label="Layer">
    <g
       id="g5152"
       transform="matrix(0.38340534,0,0,0.38340534,25.748513,21.923339)">
      <path
         style="fill:#a0a0a0"
         d="m 69.82143,145.37516 c -1.925,-0.52009 -7.55,-0.95002 -12.5,-0.9554 -13.347148,-0.0145 -14.145106,-0.0689 -25,-1.70425 -5.5,-0.8286 -10.711518,-2.13312 -11.581152,-2.89892 -0.869633,-0.76581 -1.898036,-1.0755 -2.28534,-0.68819 -0.963003,0.963 -7.495263,0.44452 -9.775671,-0.77591 -1.69744,-0.90845 -1.857837,-2.4469 -1.857837,-17.81956 0,-16.2979 0.07836,-16.94074 2.5,-20.50922 1.375,-2.026178 2.5,-4.560868 2.5,-5.632648 0,-1.07178 1.622227,-6.00179 3.604949,-10.95559 2.763985,-6.90577 4.047026,-9.0069 5.5,-9.0069 1.617045,0 1.895051,-0.76263 1.895051,-5.198551 0,-4.379234 2.530769,-11.536888 16.057669,-45.415141 8.831719,-22.119125 16.608488,-40.427959 17.281711,-40.686299 1.071642,-0.411228 55.76833,31.654715 60.03415,35.19503 1.40252,1.163986 1.62647,4.097263 1.62647,21.303073 l 0,19.953223 -2.60498,2.174333 c -6.45374,5.386818 -6.39578,5.26943 -6.38137,12.924332 0.0181,9.58418 0.65621,11.63623 3.85584,12.39883 5.21225,1.24227 5.13051,0.77462 5.13051,29.351168 0,20.20123 -0.3062,27.00138 -1.25,27.76046 -1.69233,1.36112 -42.289898,2.39115 -46.75,1.18613 z m 7.5,-24.50462 3,-0.72911 -2.5,-0.75675 c -6.650751,-2.01319 -24,0.21907 -24,3.08799 0,1.36575 11.069231,1.56737 16,0.29143 2.475,-0.64045 5.85,-1.49256 7.5,-1.89356 z"
         id="path5166"
         inkscape:connector-curvature="0"
         sodipodi:nodetypes="sssssssssssssssscssssssscssss" />
      <path
         style="fill:#eccf24"
         d="m 73.519226,144.79303 c -0.251367,-0.25136 -5.798703,-0.5487 -12.327414,-0.66074 -6.52871,-0.11205 -12.432882,-0.56778 -13.120382,-1.01274 -0.836234,-0.54122 -1.25,-3.58355 -1.25,-9.19098 0,-5.60743 0.413766,-8.64976 1.25,-9.19098 0.6875,-0.44496 6.65,-0.92371 13.25,-1.06388 14.857638,-0.31555 16.438672,-0.48551 19.278008,-2.07235 3.556315,-1.98756 1.922191,-2.85346 -6.824993,-3.61649 -8.146903,-0.71066 -12.082757,-0.16408 -23.953015,3.32641 l -5.5,1.61729 -0.292469,8.99247 c -0.160858,4.94586 -0.701714,9.40171 -1.201902,9.9019 -1.18149,1.18149 -18.777231,-1.30883 -20.348289,-2.87989 -0.643984,-0.64398 -3.417834,-1.13891 -6.16411,-1.09984 -8.795161,0.12513 -8.49323,0.71707 -8.49323,-16.65112 0,-14.67145 0.102588,-15.45022 2.5,-18.97833 1.375,-2.0235 2.5,-4.706688 2.5,-5.962668 0,-1.25597 1.655563,-6.46649 3.67903,-11.57893 2.901191,-7.33009 4.16974,-9.41851 6,-9.87788 2.08132,-0.52238 2.32097,-1.15911 2.32097,-6.166609 0,-4.867804 1.997671,-10.594045 15.573779,-44.641591 8.565578,-21.481631 15.9128,-39.407232 16.32716,-39.83467 0.693747,-0.715644 54.377371,30.631543 58.349061,34.071448 1.55624,1.347873 1.75,3.698621 1.75,21.231797 l 0,19.716111 -3.52546,2.378902 c -4.32004,2.915067 -4.63844,4.061805 -4.26861,15.373912 l 0.29407,8.995 3.75,1.76287 3.75,1.76286 0,27.354608 0,27.35461 -8.25,0.66768 c -8.99722,0.72815 -34.316226,0.7078 -35.052204,-0.0282 z M 72.82143,43.761905 c 0,-10.266666 -0.26393,-18.402737 -0.586511,-18.080156 -0.32258,0.322581 -0.530759,8.235627 -0.462619,17.584548 0.07696,10.559108 -0.260679,17.235714 -0.89133,17.625477 -0.558371,0.345092 -3.356867,-0.06795 -6.218881,-0.917881 -2.862014,-0.849926 -5.909486,-1.501203 -6.77216,-1.447282 -2.348924,0.14682 8.999086,3.690467 12.181501,3.803922 l 2.75,0.09804 z"
         id="path5164"
         inkscape:connector-curvature="0"
         sodipodi:nodetypes="csssssssscsssssssssssssscsscccccsccssssssscs" />
      <path
         style="fill:#27a9db"
         d="m 71.07143,144.26451 -3.25,-0.89312 0,-9.34977 0,-9.34977 4.189649,-1.06345 c 2.304306,-0.58489 4.541596,-0.84593 4.971754,-0.58008 1.054318,0.65161 5.945213,-2.61822 5.351982,-3.57809 -0.258193,-0.41777 -4.110359,-1.07718 -8.56037,-1.46536 -8.146903,-0.71066 -12.082757,-0.16408 -23.953015,3.32641 l -5.5,1.61729 -0.292469,8.99247 c -0.160858,4.94586 -0.701714,9.40171 -1.201902,9.9019 -1.18149,1.18149 -18.777231,-1.30883 -20.348289,-2.87989 -0.643984,-0.64398 -3.417834,-1.13891 -6.16411,-1.09984 -8.805716,0.12528 -8.49323,0.74646 -8.49323,-16.88326 0,-14.38529 0.153122,-15.6845 2.075049,-17.60643 1.141278,-1.14128 2.308778,-3.728778 2.594446,-5.749998 0.285668,-2.02122 2.132459,-7.8491 4.10398,-12.95083 2.841704,-7.35352 4.065589,-9.39661 5.905555,-9.85841 2.08132,-0.52238 2.32097,-1.15911 2.32097,-6.166609 0,-4.867804 1.997671,-10.594045 15.573779,-44.641591 8.565578,-21.481631 15.9128,-39.407232 16.32716,-39.83467 0.693747,-0.715644 54.377371,30.631543 58.349061,34.071448 1.55624,1.347873 1.75,3.698621 1.75,21.231797 l 0,19.716111 -3.52546,2.378902 c -4.32004,2.915067 -4.63844,4.061805 -4.26861,15.373912 l 0.29407,8.995 3.75,1.76287 3.75,1.76286 0,27.354608 0,27.35461 -8.25,0.66768 c -11.00779,0.89087 -33.444451,0.55779 -37.5,-0.5567 z M 50.084151,66.884136 c 3.169497,-4.10056 6.360478,-7.455564 7.091069,-7.455564 0.730592,0 3.537367,0.670129 6.237279,1.489176 2.699912,0.819046 5.921431,1.494046 7.158931,1.5 l 2.25,0.01082 0,-18.644648 0,-18.644649 -15.456269,21.394649 c -12.21727,16.911209 -15.465433,22.075714 -15.5,24.644648 -0.02663,1.97923 0.445027,3.23263 1.206269,3.20556 0.6875,-0.0244 3.843225,-3.399436 7.012721,-7.499992 z m -2.839079,75.206044 c -0.282474,-0.73612 -0.380851,-4.89374 -0.218615,-9.23916 0.246039,-6.59008 0.585287,-7.9562 2.044973,-8.23493 1.568071,-0.29943 1.75,0.66107 1.75,9.23916 0,7.93015 -0.262848,9.57332 -1.531385,9.57332 -0.842261,0 -1.762499,-0.60228 -2.044973,-1.33839 z"
         id="path5162"
         inkscape:connector-curvature="0"
         sodipodi:nodetypes="scccssssscsssssssssssssscsscccccsssssscccsscsssssss" />
      <path
         style="fill:#96358f"
         d="m 71.07143,144.32783 -3.25,-0.95644 0,-9.34977 0,-9.34977 4.11755,-1.04515 c 6.764968,-1.71713 6.985059,-1.36475 6.665069,10.67138 -0.314227,11.81941 -0.520068,12.09349 -7.532619,10.02975 z m -23.826358,-2.23765 c -0.282474,-0.73612 -0.380851,-4.89374 -0.218615,-9.23916 0.246039,-6.59008 0.585287,-7.9562 2.044973,-8.23493 1.568071,-0.29943 1.75,0.66107 1.75,9.23916 0,7.93015 -0.262848,9.57332 -1.531385,9.57332 -0.842261,0 -1.762499,-0.60228 -2.044973,-1.33839 z M 29.47277,140.98862 c -3.766762,-0.69371 -7.247372,-1.89101 -7.734687,-2.66067 -0.487315,-0.76966 -0.892918,-5.82438 -0.90134,-11.23271 -0.01155,-7.41513 -0.322712,-9.73173 -1.265313,-9.42015 -0.840869,0.27795 -1.413653,3.6601 -1.75,10.33333 l -0.5,9.92015 -3.266136,-0.1492 c -6.405837,-0.29263 -6.233864,0.17136 -6.233864,-16.81942 0,-14.37693 0.153981,-15.68536 2.071576,-17.60296 1.139367,-1.13936 2.426573,-4.176858 2.860457,-6.749998 0.828553,-4.9137 4.555392,-15.00761 6.139485,-16.62842 0.573187,-0.58647 0.928482,1.97392 0.928482,6.69098 0,4.20254 0.399012,7.88759 0.886693,8.18899 2.050216,1.26711 2.890668,-2.76135 3.532085,-16.92997 l 0.679054,-15 15.081351,-37.84824 c 10.099245,-25.345119 15.363608,-37.402851 15.935772,-36.5 0.469931,0.741532 0.86131,7.772101 0.869732,15.623487 l 0.01531,14.275247 7.5,3.41786 c 4.125,1.879823 7.5,3.69997 7.5,4.044772 0,0.344802 -6.75,9.999171 -15,21.454155 -11.635349,16.155482 -15,21.523219 -15,23.929981 0,1.839228 0.509032,3.084638 1.25,3.058298 0.6875,-0.0244 3.843225,-3.399436 7.012721,-7.499996 3.169497,-4.10056 6.094497,-7.455917 6.5,-7.456348 0.405504,-4.31e-4 0.512279,13.387064 0.237279,29.750004 l -0.5,29.750778 -6,2.02412 -6,2.02412 -0.5,9.47588 -0.5,9.47588 -3.5,0.16067 c -1.925,0.0884 -6.581897,-0.40692 -10.348657,-1.10062 z m 79.53224,-80.310048 c 0.25934,-2.253926 0.75625,-2.701013 2.75465,-2.478439 3.39206,0.377796 3.65407,0.916476 1.56732,3.222308 -2.65825,2.937331 -4.70501,2.585057 -4.32197,-0.743869 z"
         id="path5160"
         inkscape:connector-curvature="0"
         sodipodi:nodetypes="scccsssssssssssssscsssssssscssscsssscsssccccccsssss" />
      <path
         style="fill:#616161"
         d="m 74.32143,144.8811 c -0.55,-0.15268 -2.2375,-0.55052 -3.75,-0.88411 l -2.75,-0.60652 0,-9.35595 0,-9.35595 3.125,-0.625 c 6.041744,-1.20835 5.875,-1.48695 5.875,9.81598 0,10.07515 -0.348202,11.60885 -2.5,11.01155 z m 3.874067,-10.95253 c 0.0023,-6.05 0.166961,-8.39607 0.366011,-5.21349 0.19905,3.18258 0.197204,8.13258 -0.0041,11 -0.201308,2.86742 -0.364167,0.26349 -0.361911,-5.78651 z m -48.722727,7.06005 c -3.766762,-0.69371 -7.247372,-1.89101 -7.734687,-2.66067 -0.487315,-0.76966 -0.892918,-5.82438 -0.90134,-11.23271 -0.01155,-7.41513 -0.322712,-9.73173 -1.265313,-9.42015 -0.840869,0.27795 -1.413653,3.6601 -1.75,10.33333 l -0.5,9.92015 -3.266136,-0.1492 c -6.405837,-0.29263 -6.233864,0.17136 -6.233864,-16.81942 0,-14.37693 0.153981,-15.68536 2.071576,-17.60296 1.139367,-1.13936 2.426573,-4.176858 2.860457,-6.749998 0.828553,-4.9137 4.555392,-15.00761 6.139485,-16.62842 0.573187,-0.58647 0.928482,1.97392 0.928482,6.69098 0,4.20254 0.399012,7.88759 0.886693,8.18899 2.050216,1.26711 2.890668,-2.76135 3.532085,-16.92997 l 0.679054,-15 15.081351,-37.84824 c 10.099245,-25.345119 15.363608,-37.402851 15.935772,-36.5 0.469931,0.741532 0.86131,7.770387 0.869732,15.619679 0.01523,14.19761 0.02808,14.277257 2.483956,15.396228 1.357754,0.618634 2.188225,1.578515 1.845492,2.133069 -0.364883,0.590393 -0.119643,0.697095 0.591713,0.257453 1.49192,-0.922057 7.278444,1.334604 6.529505,2.546413 -0.296576,0.479869 0.113626,0.621966 0.911559,0.31577 4.16445,-1.59805 1.39095,3.472123 -12.291861,22.470472 -8.280278,11.497024 -15.061942,21.512412 -15.070364,22.256418 -0.01208,1.067479 -0.185066,1.085291 -0.820309,0.08447 -0.919986,-1.449437 -6.722128,-3.340645 -7.589105,-2.473669 -0.977801,0.977801 -0.6331,16.08817 0.381309,16.71511 0.526119,0.32516 2.647174,-1.67329 4.713454,-4.44099 2.066281,-2.7677 4.223319,-5.05218 4.793419,-5.07662 0.5701,-0.0244 3.62977,-3.399436 6.799266,-7.499996 3.169497,-4.10056 6.094497,-7.455917 6.5,-7.456348 0.405504,-4.34e-4 0.512279,13.387061 0.237279,29.750001 l -0.5,29.750778 -6,2.02412 -6,2.02412 -0.5,9.47588 -0.5,9.47588 -3.5,0.16067 c -1.925,0.0884 -6.581897,-0.40692 -10.34866,-1.10062 z m 79.53224,-80.310048 c 0.25934,-2.253926 0.75625,-2.701013 2.75465,-2.478439 3.39206,0.377796 3.65407,0.916476 1.56732,3.222308 -2.65825,2.937331 -4.70501,2.585057 -4.32197,-0.743869 z"
         id="path5158"
         inkscape:connector-curvature="0"
         sodipodi:nodetypes="cscccsscssssssssscsssssssscsssssssssssssscsssccccccsssss" />
      <path
         style="fill:#ba2b33"
         d="m 74.32143,144.8811 c -0.55,-0.15268 -2.2375,-0.55052 -3.75,-0.88411 l -2.75,-0.60652 0,-9.35595 0,-9.35595 3.125,-0.625 c 6.041744,-1.20835 5.875,-1.48695 5.875,9.81598 0,10.07515 -0.348202,11.60885 -2.5,11.01155 z m -44.417048,-3.99969 c -4.079377,-0.75646 -7.784986,-1.95531 -8.234688,-2.66411 -0.449701,-0.7088 -0.824529,-5.71373 -0.832951,-11.12206 -0.01155,-7.41513 -0.322712,-9.73173 -1.265313,-9.42015 -0.840869,0.27795 -1.413653,3.6601 -1.75,10.33333 l -0.5,9.92015 -3.266136,-0.1492 c -6.386301,-0.29174 -6.2353,0.0985 -6.218551,-16.06942 0.01445,-13.95009 0.771525,-19.05333 2.428785,-16.37183 1.406068,2.27506 2.555902,-0.17483 2.555902,-5.445738 0,-5.16003 3.797507,-17.66132 6.048855,-19.91266 0.601527,-0.60153 0.951145,1.85749 0.951145,6.68983 0,4.20254 0.399012,7.88759 0.886693,8.18899 2.044858,1.26379 2.891321,-2.74779 3.550484,-16.82659 L 24.956061,63.135339 40.005459,25.161785 c 10.231331,-25.816315 15.32728,-37.534894 15.917372,-36.603384 1.503542,2.37347 1.103499,29.974724 -0.460775,31.79143 -0.747655,0.868308 -6.372655,11.211879 -12.5,22.985715 L 31.82143,64.74252 l 0,11.343022 c 0,8.43802 0.321741,11.34303 1.256283,11.34303 0.690956,0 5.978456,-6.05317 11.75,-13.4515 5.771545,-7.398319 10.943717,-13.641431 11.493717,-13.87358 0.660111,-0.278624 0.830056,9.637517 0.5,29.17466 l -0.5,29.596748 -6,2.02684 -6,2.02683 -0.5,9.5 -0.5,9.5 -3,0.16411 c -1.65,0.0903 -6.337672,-0.45481 -10.417048,-1.21127 z M 40.827591,69.707164 c -0.0034,-0.671775 -1.467973,-1.600202 -3.254632,-2.063171 -1.786659,-0.46297 -3.381142,-1.53067 -3.543295,-2.372668 -0.288267,-1.496849 19.915466,-41.186442 22.157309,-43.527331 1.475142,-1.540314 14.183834,3.728963 14.034432,5.818956 -0.05501,0.769588 -6.102066,9.715721 -13.437894,19.880296 -7.335828,10.164575 -13.925545,19.607008 -14.643814,20.983186 -0.71827,1.376177 -1.308718,1.952506 -1.312106,1.280732 z m 68.177419,-9.028592 c 0.25934,-2.253926 0.75625,-2.701013 2.75465,-2.478439 3.39206,0.377796 3.65407,0.916476 1.56732,3.222308 -2.65825,2.937331 -4.70501,2.585057 -4.32197,-0.743869 z"
         id="path5156"
         inkscape:connector-curvature="0" />
      <path
         style="fill:#109548"
         d="m 29.904382,140.88141 c -4.079377,-0.75646 -7.784986,-1.95531 -8.234688,-2.66411 -0.449701,-0.7088 -0.824529,-5.71373 -0.832951,-11.12206 -0.01155,-7.41513 -0.322712,-9.73173 -1.265313,-9.42015 -0.840869,0.27795 -1.413653,3.6601 -1.75,10.33333 l -0.5,9.92015 -3.266136,-0.1492 c -6.386301,-0.29174 -6.2353,0.0985 -6.218551,-16.06942 0.01445,-13.95009 0.771525,-19.05333 2.428785,-16.37183 1.406068,2.27506 2.555902,-0.17483 2.555902,-5.445738 0,-5.16003 3.797507,-17.66132 6.048855,-19.91266 0.601527,-0.60153 0.951145,1.85749 0.951145,6.68983 0,4.20254 0.399012,7.88759 0.886693,8.18899 2.044858,1.26379 2.891321,-2.74779 3.550484,-16.82659 L 24.956061,63.135339 40.005459,25.161785 c 10.231331,-25.816315 15.32728,-37.534894 15.917372,-36.603384 1.503542,2.37347 1.103499,29.974724 -0.460775,31.79143 -0.747655,0.868308 -6.372655,11.211879 -12.5,22.985715 L 31.82143,64.74252 l 0,11.343022 c 0,8.43802 0.321741,11.34303 1.256283,11.34303 0.690956,0 5.978456,-6.05317 11.75,-13.4515 5.771545,-7.398319 10.943717,-13.641431 11.493717,-13.87358 0.660111,-0.278624 0.830056,9.637517 0.5,29.17466 l -0.5,29.596748 -6,2.02684 -6,2.02683 -0.5,9.5 -0.5,9.5 -3,0.16411 c -1.65,0.0903 -6.337672,-0.45481 -10.417048,-1.21127 z M 109.00501,60.678572 c 0.25934,-2.253926 0.75625,-2.701013 2.75465,-2.478439 3.39206,0.377796 3.65407,0.916476 1.56732,3.222308 -2.65825,2.937331 -4.70501,2.585057 -4.32197,-0.743869 z"
         id="path5154"
         inkscape:connector-curvature="0" />
    </g>
    <path
       style="fill:#f2f2f2;fill-opacity:0.94117647"
       d="M 56.091041,77.425781 55.539225,77.34332 55.7868,76.415006 c 0.252183,-0.945593 0.258005,-6.326827 0.0075,-6.910457 -0.08026,-0.186961 0.138047,-0.429648 0.722828,-0.803572 1.230412,-0.786753 1.192079,-1.073662 -0.177637,-1.329544 -2.082141,-0.388972 -5.426593,-0.440747 -7.172184,-0.111031 -0.870494,0.164424 -1.60834,0.273329 -1.639659,0.242009 -0.03132,-0.03132 -0.0095,-5.138291 0.04853,-11.34883 0.08381,-8.971984 0.15221,-11.291889 0.332948,-11.291889 0.125109,0 1.16244,0.241071 2.305179,0.535714 1.142739,0.294643 2.393705,0.535714 2.779925,0.535714 l 0.702218,0 0,-7.226539 c 0,-6.552701 -0.02666,-7.216309 -0.28588,-7.116836 -0.157233,0.06034 -0.338037,0.03527 -0.401785,-0.0557 -0.06375,-0.09097 -1.221087,-0.679839 -2.571862,-1.308589 -2.327462,-1.083371 -2.465216,-1.176514 -2.632933,-1.780258 -0.09734,-0.350391 -0.182215,-2.525468 -0.188618,-4.833503 -0.01195,-4.307071 -0.139245,-5.832361 -0.505657,-6.058817 -0.154068,-0.09522 -0.122141,-0.323807 0.121113,-0.867132 l 0.330335,-0.737827 1.415858,0.726521 c 1.646572,0.844908 10.402062,5.891744 14.808715,8.536034 4.930034,2.958353 6.126298,3.782632 6.361514,4.383363 0.142861,0.364863 0.235827,2.815929 0.2915,7.685445 0.07188,6.286998 0.04855,7.177277 -0.19333,7.37802 -0.228406,0.18956 -0.33769,0.165673 -0.644165,-0.140802 -0.498894,-0.498895 -1.707848,-0.513432 -1.969952,-0.02369 -0.280544,0.524204 -0.227512,1.577263 0.08833,1.754018 0.245201,0.137222 0.245201,0.219863 0,0.806709 -0.291604,0.697909 -0.385218,4.71962 -0.160011,6.874272 l 0.113173,1.082791 1.404684,0.633048 1.404682,0.63305 0,10.429218 0,10.429218 -1.294643,0.115212 c -1.614946,0.143716 -12.346691,0.287477 -13.096459,0.175436 z"
       id="path5191"
       inkscape:connector-curvature="0" />
    <path
       style="fill:#f2f2f2;fill-opacity:0.94117647"
       d="m 33.633555,57.772936 c -0.05247,-0.275291 -0.148256,-1.525352 -0.212852,-2.777911 -0.0646,-1.25256 -0.189403,-2.321852 -0.277349,-2.376206 -0.37728,-0.233172 0.975516,-2.042842 1.527101,-2.042842 0.217134,0 0.275581,0.218918 0.274132,1.026786 -0.003,1.664404 -0.354618,5.193903 -0.586859,5.890589 -0.269174,0.807482 -0.59926,0.93492 -0.724173,0.279584 z"
       id="path5193"
       inkscape:connector-curvature="0" />
    <path
       style="fill:#f2f2f2;fill-opacity:0.94117647"
       d="m 42.089286,77.069997 c -0.245536,-0.03547 -1.169643,-0.152157 -2.053571,-0.259311 -2.314948,-0.280628 -5.460732,-0.966714 -6.268826,-1.367212 -0.565226,-0.280131 -0.808407,-0.310656 -1.298603,-0.163006 -0.727392,0.219097 -2.68042,-0.06902 -3.323315,-0.490257 -0.608657,-0.398807 -0.658142,-1.017601 -0.594057,-7.428519 l 0.05623,-5.625 0.747657,-1.34085 c 0.411211,-0.737467 0.9155,-1.952643 1.120641,-2.700391 0.205142,-0.747747 0.688288,-2.168609 1.073659,-3.157469 1.127995,-2.894435 1.739987,-3.962005 2.271247,-3.962005 0.172279,0 0.133237,0.121703 -0.128891,0.401786 -0.779288,0.832668 -2.285551,4.536736 -3.029076,7.448833 -0.196185,0.768381 -0.635207,1.889785 -0.975605,2.49201 -0.340397,0.602226 -0.702031,1.394267 -0.80363,1.760092 -0.240364,0.865477 -0.243811,10.095269 -0.0041,10.958308 0.278932,1.004212 0.529401,1.113362 2.829615,1.233095 1.43803,0.07485 2.256684,0.202041 2.660938,0.413409 0.928499,0.485476 3.702006,1.011167 5.950454,1.127853 l 2.070059,0.107427 0.118864,-1.230334 c 0.06537,-0.676686 0.170791,-2.332818 0.234257,-3.680296 l 0.115395,-2.449959 1.08854,-0.358111 c 3.305918,-1.087586 5.322629,-1.480342 7.874254,-1.533517 l 2.5,-0.0521 L 52,67.356418 c -3.37981,0.206661 -5.625,0.811028 -5.625,1.514154 0,0.137855 0.140625,0.283882 0.3125,0.324502 0.171875,0.04062 -0.26875,0.137121 -0.979166,0.214444 -1.986892,0.216261 -1.912682,0.07568 -1.982228,3.755127 -0.06728,3.559875 -0.0051,3.762459 1.194623,3.889522 0.357885,0.0379 -0.03234,0.07148 -0.867157,0.07462 -0.834822,0.0031 -1.71875,-0.02332 -1.964286,-0.05879 z"
       id="path5195"
       inkscape:connector-curvature="0" />
    <path
       style="fill:#f2f2f2;fill-opacity:0.94117647"
       d="m 30.345547,57.880807 c 0,-0.121732 0.346382,-1.267154 0.597371,-1.975397 0.498617,-1.407003 1.20568,-3.151004 1.640319,-4.04592 0.293424,-0.604154 0.515092,-0.938569 0.772079,-1.164778 0.184257,-0.16219 0.250303,-0.191834 0.487071,-0.218622 0.320173,-0.03622 0.481157,-0.163109 0.564248,-0.444734 0.02841,-0.09628 0.07022,-0.596928 0.09293,-1.112553 0.04813,-1.093023 0.108271,-1.499057 0.357211,-2.411481 0.495432,-1.815878 1.501488,-4.529035 4.320269,-11.65102 4.342687,-10.972309 7.804397,-19.219083 8.118027,-19.339434 0.09154,-0.03513 0.690145,0.261831 2.246907,1.114644 5.993404,3.283261 19.90922,11.572315 20.775253,12.374928 0.167159,0.154918 0.276476,0.420295 0.359281,0.872184 0.160615,0.876519 0.172007,1.364835 0.190587,8.169643 l 0.01834,6.71875 -0.992665,0.825893 c -1.032759,0.859251 -1.756421,1.541639 -1.972545,1.860043 -0.06941,0.102265 -0.175975,0.303158 -0.2368,0.446429 l -0.110592,0.260492 0.02792,-0.267857 c 0.03808,-0.365309 0.141644,-0.757135 0.274271,-1.037678 0.119101,-0.251931 0.482285,-0.725715 0.556304,-0.725715 0.05719,0 0.326798,-0.19611 0.530283,-0.385714 0.08594,-0.08008 0.477678,-0.363683 0.870536,-0.63024 l 0.714285,-0.484647 0.01242,-4.216217 c 0.01452,-4.93042 -0.04699,-9.223358 -0.143582,-10.019789 -0.07956,-0.656019 -0.197392,-1.08554 -0.354199,-1.291125 -0.224055,-0.293751 -0.723173,-0.634853 -2.996782,-2.048031 -5.987797,-3.721756 -18.444682,-10.89276 -19.47674,-11.212095 -0.09258,-0.02865 -0.117466,0.0021 -0.276409,0.341255 -0.482533,1.029697 -3.27377,7.867573 -5.782331,14.165353 -0.890007,2.234375 -2.658844,6.674107 -3.930751,9.866071 l -2.312556,5.803572 -0.09379,2.03125 c -0.06249,1.353382 -0.111971,2.063615 -0.148271,2.128234 -0.09128,0.162485 -0.266473,0.271222 -0.634412,0.393757 -0.19329,0.06437 -0.375492,0.146025 -0.404894,0.181453 -0.07966,0.09598 -0.122035,0.07803 -0.0991,-0.04196 0.04371,-0.228652 -0.204981,-0.20297 -0.485094,0.05009 -0.100248,0.09057 -0.262271,0.282477 -0.36005,0.426464 -0.545956,0.803956 -1.739443,3.719799 -2.424946,5.924458 -0.141239,0.454241 -0.264136,0.834263 -0.273105,0.844494 -0.009,0.01023 -0.01631,-0.02327 -0.01631,-0.07445 z"
       id="path5199"
       inkscape:connector-curvature="0" />
    <path
       style="fill:#f2f2f2;fill-opacity:0.94117647"
       d="m 34.952254,51.909874 c -0.0063,-1.068156 -0.02327,-1.197705 -0.17216,-1.314823 -0.09664,-0.07602 -0.09939,-0.08694 -0.02763,-0.109751 0.04383,-0.01393 0.137511,-0.07898 0.208181,-0.144547 l 0.128491,-0.119214 -0.0336,0.777203 c -0.01848,0.427462 -0.04803,1.018275 -0.06567,1.312918 -0.03007,0.502223 -0.03242,0.477105 -0.03761,-0.401786 z"
       id="path5201"
       inkscape:connector-curvature="0" />
    <path
       style="fill:#f2f2f2;fill-opacity:0.94117647"
       d=""
       id="path5203"
       inkscape:connector-curvature="0" />
    <path
       style="fill:#f2f2f2;fill-opacity:0.94117647"
       d="m 32.847609,52.668803 c -0.0013,-0.07472 0.421694,-0.92846 0.599202,-1.209375 0.21122,-0.334267 0.48995,-0.626289 0.702761,-0.736274 0.0911,-0.04708 0.175616,-0.0856 0.187817,-0.0856 0.0122,0 -0.144496,0.165736 -0.348217,0.368303 -0.527141,0.524154 -0.917045,1.12997 -0.91943,1.428572 -5.39e-4,0.06752 -0.02388,0.122767 -0.05186,0.122767 -0.02799,0 -0.07757,0.03516 -0.110188,0.07813 -0.03262,0.04297 -0.05965,0.05804 -0.06008,0.03348 z"
       id="path5205"
       inkscape:connector-curvature="0" />
    <path
       style="fill:#f2f2f2;fill-opacity:0.94117647"
       d=""
       id="path5207"
       inkscape:connector-curvature="0" />
    <path
       style="fill:#f2f2f2;fill-opacity:0.94117647"
       d="m 33.470547,51.499395 c 0,-0.06054 0.149096,-0.257406 0.373775,-0.493539 0.18256,-0.191866 0.305314,-0.258661 0.197953,-0.107714 -0.123841,0.174118 -0.571728,0.645135 -0.571728,0.601253 z"
       id="path5209"
       inkscape:connector-curvature="0" />
    <path
       style="fill:#f2f2f2;fill-opacity:0.94117647"
       d=""
       id="path5211"
       inkscape:connector-curvature="0" />
    <path
       style="fill:#f2f2f2;fill-opacity:0.94117647"
       d="m 33.812066,58.115551 c -0.154805,-0.154806 -0.203339,-0.534936 -0.342028,-2.678891 -0.127434,-1.969962 -0.199266,-2.624194 -0.311063,-2.833088 -0.07648,-0.142906 -0.05241,-0.265848 0.114114,-0.582735 0.241815,-0.460175 0.70926,-1.017474 1.038561,-1.238195 0.303552,-0.203463 0.409766,-0.229304 0.499262,-0.121468 0.183267,0.220823 0.09596,2.593529 -0.183106,4.976379 -0.168849,1.441727 -0.238058,1.781565 -0.44719,2.195853 -0.148415,0.294008 -0.266379,0.384316 -0.36855,0.282145 l 0,0 z"
       id="path5213"
       inkscape:connector-curvature="0" />
    <path
       style="fill:#f2f2f2;fill-opacity:0.94117647"
       d="m 33.693762,74.918779 c -0.184152,-0.04618 -0.529214,-0.09711 -0.766804,-0.113194 -0.23759,-0.01608 -0.45026,-0.04138 -0.472599,-0.05622 -0.04327,-0.02875 0.110969,-3.295016 0.234226,-4.960023 0.10472,-1.414605 0.231129,-2.164978 0.430575,-2.555925 0.17537,-0.343753 0.391642,-0.128288 0.481829,0.480032 0.02548,0.171875 0.06657,1.196429 0.09132,2.276786 0.07088,3.095164 0.171848,4.572197 0.334885,4.899011 0.03383,0.06782 0.04799,0.121102 0.03145,0.118403 -0.01653,-0.0027 -0.18073,-0.04269 -0.364881,-0.08887 z"
       id="path5215"
       inkscape:connector-curvature="0" />
    <path
       style="fill:#f2f2f2;fill-opacity:0.94117647"
       d="m 33.783047,74.919936 c -0.163897,-0.04073 -1.113412,-0.175241 -1.237072,-0.175241 -0.06466,0 -0.06894,-0.0986 -0.04313,-0.993303 0.02558,-0.886701 0.161901,-3.388833 0.232882,-4.274554 0.140908,-1.758295 0.450781,-2.74302 0.705921,-2.243303 0.123779,0.242432 0.158315,0.594284 0.204971,2.08824 0.113087,3.621111 0.193546,5.010364 0.314054,5.422626 0.07306,0.249935 0.08284,0.240271 -0.177628,0.175535 l 0,0 z"
       id="path5217"
       inkscape:connector-curvature="0" />
    <path
       style="fill:#ff7500;fill-opacity:1"
       d="m 40.423299,76.346146 c -1.443437,-0.09742 -3.698597,-0.482665 -4.936699,-0.84333 -0.955901,-0.27846 -1.366361,-0.476121 -1.451004,-0.69875 -0.135367,-0.356045 -0.230521,-1.942425 -0.308826,-5.148656 -0.04409,-1.805175 -0.09189,-2.292886 -0.248073,-2.53126 -0.101192,-0.154438 -0.28093,-0.124092 -0.391604,0.06612 -0.288713,0.496197 -0.421631,1.704784 -0.614794,5.590143 -0.05432,1.092634 -0.102532,1.99166 -0.107136,1.997839 -0.01688,0.02265 -1.886729,-0.08128 -2.232929,-0.124103 -0.863965,-0.106875 -1.125987,-0.447084 -1.281141,-1.663431 -0.07958,-0.623905 -0.07868,-7.06364 0.0012,-8.24602 0.09452,-1.399875 0.194242,-2.102362 0.349758,-2.463888 0.123949,-0.288141 0.228362,-0.2654 0.53059,0.115559 0.541105,0.682066 0.865153,-0.01801 0.95636,-2.06612 0.05241,-1.176821 0.242503,-2.226487 0.696244,-3.844479 0.536666,-1.913696 1.373436,-3.868973 1.661088,-3.881459 0.159713,-0.0069 0.226533,0.583827 0.277442,2.452887 0.04381,1.608314 0.0941,2.310925 0.202791,2.833161 0.07098,0.341021 0.152583,0.454338 0.356575,0.495136 0.60538,0.121076 0.89794,-1.31494 1.137378,-5.582761 0.02479,-0.441964 0.105853,-2.11942 0.180129,-3.727678 l 0.135046,-2.924108 3.166875,-7.991071 c 1.741781,-4.395089 3.284343,-8.282366 3.427915,-8.638393 l 0.26104,-0.647321 2.508325,-0.01153 c 2.368229,-0.01089 2.508288,-0.0071 2.507666,0.06696 -0.0016,0.193177 -0.147219,0.674489 -0.252143,0.833541 -0.658145,0.997672 -2.701976,4.814274 -6.950482,12.979169 l -2.08243,4.002069 0.0012,2.649716 c 0.0021,4.76606 0.09951,6.001266 0.477545,6.056388 0.299242,0.04363 2.003435,-1.913735 5.259283,-6.0406 1.091651,-1.383694 2.074934,-2.592653 2.813979,-3.459821 0.622095,-0.729945 0.851169,-0.968871 0.890864,-0.929177 0.05839,0.05839 0.114089,0.628204 0.160651,1.643462 0.03289,0.717046 0.04213,2.400683 0.02685,4.888393 -0.02598,4.228839 -0.209701,15.877227 -0.251106,15.920832 -0.01461,0.01539 -1.051649,0.373236 -2.30453,0.79522 l -2.277967,0.767246 -0.170064,3.289601 c -0.09354,1.80928 -0.181299,3.444499 -0.195032,3.63382 l -0.02497,0.344219 -0.183251,0.02204 c -0.390062,0.04691 -1.189744,0.0564 -1.722543,0.02044 l -2e-6,0 z"
       id="path5219"
       inkscape:connector-curvature="0" />
    <path
       style="fill:#ff7500;fill-opacity:1"
       d="m 44.692334,28.862622 c -1.964927,-0.0091 -2.488534,-0.02329 -2.470179,-0.06696 0.01281,-0.03048 0.40404,-0.999623 0.869398,-2.153641 2.29284,-5.685894 3.782783,-9.040179 4.015566,-9.040179 0.134469,0 0.24238,0.517267 0.330763,1.585503 0.07879,0.952333 0.08006,5.899478 0.0018,7.142176 -0.07293,1.158477 -0.181985,2.369489 -0.2222,2.467423 -0.0296,0.07209 -0.197226,0.07645 -2.525179,0.06568 l 0,0 z"
       id="path5221"
       inkscape:connector-curvature="0" />
    <path
       style="fill:#ff7500;fill-opacity:1"
       d="m 42.929252,28.818423 c -0.517442,-0.01027 -0.679991,-0.02697 -0.664149,-0.06822 0.01154,-0.03004 0.216463,-0.536761 0.455392,-1.126046 2.664553,-6.571762 4.12008,-9.880139 4.384606,-9.966103 0.08169,-0.02655 0.181075,0.37138 0.268549,1.075254 0.06882,0.553756 0.07834,1.048832 0.07701,4.002456 -0.0015,3.417514 -0.02745,4.13144 -0.204352,5.630953 l -0.05073,0.43006 -0.200847,0.02753 c -0.191975,0.02631 -2.620458,0.0228 -4.065474,-0.0059 l 0,0 z"
       id="path5223"
       inkscape:connector-curvature="0" />
    <path
       style="fill:#ff7500;fill-opacity:1"
       d="m 42.911251,28.818452 c -0.362165,-0.0075 -0.658482,-0.02078 -0.658482,-0.0295 0,-0.0087 0.309175,-0.7766 0.687055,-1.706395 2.58476,-6.359947 3.901256,-9.338697 4.165277,-9.424497 0.08169,-0.02655 0.181075,0.37138 0.268549,1.075254 0.0688,0.553564 0.07838,1.049857 0.07726,4.002456 -0.0013,3.418785 -0.02748,4.140609 -0.204311,5.630953 l -0.05103,0.43006 -0.200847,0.02753 c -0.192294,0.02636 -2.70246,0.02276 -4.083475,-0.0059 l 0,0 z"
       id="path5225"
       inkscape:connector-curvature="0" />
    <path
       style="fill:#ff7500;fill-opacity:1"
       d="m 42.862326,28.819559 c -0.464058,-0.01121 -0.612729,-0.02853 -0.596486,-0.06946 0.781436,-1.969037 2.396372,-5.888592 3.103417,-7.532194 0.996448,-2.31635 1.577896,-3.508517 1.7363,-3.560005 0.07762,-0.02523 0.177226,0.362076 0.266882,1.037683 0.06702,0.505025 0.07722,1.02076 0.07862,3.973214 0.0011,2.392929 -0.01544,3.603369 -0.05621,4.107143 -0.0824,1.018017 -0.186336,2.001102 -0.214565,2.029387 -0.02676,0.02681 -3.344807,0.03775 -4.31795,0.01423 l 0,0 z"
       id="path5227"
       inkscape:connector-curvature="0" />
    <path
       style="fill:#ff7500;fill-opacity:1"
       d="m 42.817713,28.819549 c -0.42839,-0.01127 -0.567986,-0.02886 -0.551856,-0.06952 0.807698,-2.03637 2.374945,-5.840448 3.103166,-7.532116 1.005399,-2.335557 1.57678,-3.508113 1.734432,-3.559305 0.143599,-0.04663 0.269032,0.775221 0.332014,2.175376 0.06847,1.522253 0.02533,6.139034 -0.06801,7.276786 -0.0778,0.948352 -0.157723,1.664043 -0.189454,1.696428 -0.02491,0.02542 -3.490247,0.03524 -4.360294,0.01235 l 0,0 z"
       id="path5229"
       inkscape:connector-curvature="0" />
    <path
       style="fill:#ff7500;fill-opacity:1"
       d=""
       id="path5231"
       inkscape:connector-curvature="0" />
    <path
       style="fill:#ff7500;fill-opacity:1"
       d="m 40.493463,33.074873 c 0.0016,-0.0038 0.147201,-0.371094 0.323668,-0.816127 1.119855,-2.824175 1.844762,-4.63527 2.543494,-6.354615 0.235519,-0.579535 0.254351,-0.623589 0.266575,-0.623605 0.0083,-1.1e-5 0.01213,0.0026 0.01041,0.007 -0.0015,0.0038 -0.02841,0.06975 -0.05978,0.146484 -0.268748,0.657327 -1.352109,3.342445 -1.35469,3.357609 -0.0023,0.01349 -3.13e-4,0.01558 0.01994,0.02103 0.08888,0.02393 0.448938,0.03665 1.231454,0.0435 l 0.479911,0.0042 -0.318081,0.0034 c -0.174944,0.0019 -0.570772,0.0037 -0.879618,0.0042 -0.441858,6.36e-4 -0.562688,0.0023 -0.566934,0.0078 -0.01028,0.01329 -0.707434,1.761405 -1.588975,3.984375 -0.0747,0.18837 -0.08964,0.22182 -0.09908,0.22182 -0.0067,0 -0.01,-0.0028 -0.0083,-0.007 z"
       id="path5233"
       inkscape:connector-curvature="0" />
    <path
       style="fill:#ff7500;fill-opacity:1"
       d="m 42.138433,50.384709 c -0.105684,-0.05739 -0.231587,-0.314828 -0.280816,-0.574189 -0.02178,-0.114739 -0.03143,-0.350935 -0.02323,-0.568211 0.0128,-0.338968 0.0246,-0.398361 0.133418,-0.671735 0.320279,-0.804608 1.096196,-2.066496 2.668911,-4.340499 0.984908,-1.424088 5.084481,-7.174594 7.291332,-10.227614 l 1.460231,-2.020125 -0.02017,0.173439 c -0.06178,0.531217 -0.08755,1.881016 -0.112388,5.887116 -0.03012,4.857614 -0.06236,5.904399 -0.20857,6.771179 -0.05867,0.347805 -0.0966,0.438057 -0.194423,0.462609 -0.153433,0.03851 -0.786266,-0.01928 -1.238685,-0.113109 -0.251749,-0.05221 -0.791549,-0.186011 -1.199556,-0.29733 -1.508655,-0.411615 -2.392641,-0.582047 -2.558507,-0.493278 l -0.07384,0.03952 0.09294,0.07447 c 0.05112,0.04096 0.25977,0.140873 0.463668,0.222031 0.203898,0.08116 0.365228,0.153055 0.358511,0.159772 -0.0067,0.0067 -0.180645,-0.02267 -0.386507,-0.0653 -0.532184,-0.110212 -0.661185,-0.124831 -0.738134,-0.08365 -0.04802,0.0257 -0.07782,0.02599 -0.107868,0.0011 -0.115787,-0.09609 -0.808265,0.678291 -2.510987,2.807992 -1.19862,1.499187 -2.056325,2.454707 -2.504536,2.790157 -0.169482,0.126844 -0.190151,0.131213 -0.310796,0.0657 l 0,10e-7 z"
       id="path5235"
       inkscape:connector-curvature="0" />
    <path
       style="fill:#ba2b33;fill-opacity:1"
       d="m 38.649784,53.976469 c -0.155286,-0.367438 -0.260764,-1.60066 -0.284172,-3.322455 -0.02722,-2.002343 0.05087,-2.898541 0.260902,-2.994239 0.171937,-0.07834 0.627665,-0.03143 1.16015,0.119424 0.747758,0.211839 1.54441,0.623486 1.587104,0.82009 0.03166,0.145779 0.04117,0.160689 0.102564,0.160689 0.03327,0 0.08376,0.03551 0.112204,0.07892 0.02844,0.0434 0.07877,0.07892 0.111845,0.07892 0.04969,0 0.06383,-0.03152 0.08144,-0.181512 0.01383,-0.117799 0.06262,-0.259074 0.138989,-0.402482 0.151184,-0.283884 0.478463,-0.812615 0.49362,-0.797458 0.0064,0.0064 -0.0939,0.220578 -0.222904,0.47594 -0.257084,0.508903 -0.389113,0.881192 -0.416494,1.174417 -0.02218,0.237471 0.03714,0.698428 0.116888,0.908295 0.06291,0.165573 0.202514,0.338029 0.273632,0.338029 0.07659,0 0.04205,0.04649 -0.15247,0.205187 -0.243659,0.198789 -0.801583,0.828521 -1.314481,1.483662 -0.641485,0.819388 -0.732401,0.927916 -1.08012,1.289351 -0.414124,0.430459 -0.742579,0.683603 -0.88698,0.683603 -0.01743,0 -0.0542,-0.05327 -0.08172,-0.118377 z"
       id="path5237"
       inkscape:connector-curvature="0" />
    <path
       style="fill:#ba2b33;fill-opacity:1"
       d="M 67.741265,46.054535 C 67.45616,45.692564 67.576,44.552003 67.918391,44.368761 c 0.260129,-0.139216 1.395042,-0.02663 1.59984,0.158714 0.138658,0.125483 0.142924,0.170502 0.03574,0.377186 -0.06694,0.129082 -0.272469,0.38968 -0.456728,0.579107 -0.59164,0.608231 -1.143504,0.840525 -1.355978,0.570767 z"
       id="path5239"
       inkscape:connector-curvature="0" />
    <path
       style="fill:#ba2b33;fill-opacity:1"
       d="m 44.12568,76.619608 -0.291587,-0.26082 0.0075,-2.39543 c 0.0076,-2.438332 0.108639,-3.557934 0.355063,-3.934024 0.17666,-0.269617 0.548326,-0.356684 0.733241,-0.171769 0.36649,0.366491 0.360189,6.225326 -0.0073,6.786184 -0.200835,0.306512 -0.435152,0.299413 -0.796874,-0.02414 z"
       id="path5241"
       inkscape:connector-curvature="0" />
    <path
       style="fill:#b3b3b3;fill-opacity:1"
       d="m 49.994807,77.177617 c -1.587693,-0.0459 -4.793899,-0.220075 -4.916373,-0.267072 -0.09697,-0.03721 -0.103069,-0.08894 -0.02721,-0.230692 0.271604,-0.507495 0.30245,-5.920994 0.03811,-6.688246 -0.113022,-0.328048 -0.112878,-0.32838 0.164033,-0.379224 0.434586,-0.07979 3.370458,-0.217115 5.723582,-0.267711 l 2.142857,-0.04608 -0.691964,0.184847 -0.691965,0.184846 0,3.639277 0,3.639276 0.46875,0.138161 0.46875,0.138162 -0.9375,-0.01116 c -0.515625,-0.0061 -1.299107,-0.02161 -1.741071,-0.03439 l 0,0 z"
       id="path5243"
       inkscape:connector-curvature="0" />
    <path
       style="fill:#b3b3b3;fill-opacity:1"
       d="M 39.503735,76.215871 C 37.339192,75.937958 35.334202,75.477587 34.507,75.068557 c -0.291552,-0.144164 -0.417871,-0.268955 -0.470612,-0.464915 -0.03965,-0.147321 -0.135974,-1.774554 -0.214053,-3.616071 -0.07808,-1.841518 -0.187732,-3.488291 -0.243674,-3.659495 -0.13597,-0.416127 -0.363073,-0.448385 -0.554232,-0.07872 -0.228426,0.441727 -0.375574,1.721775 -0.545614,4.74632 l -0.154558,2.749174 -0.986154,-0.05379 c -1.810349,-0.09875 -2.117498,-0.253445 -2.334503,-1.175724 -0.14758,-0.627225 -0.175249,-8.210584 -0.03496,-9.581328 0.10092,-0.986059 0.247767,-1.673856 0.374035,-1.751895 0.04887,-0.0302 0.205909,0.07324 0.348976,0.229882 0.577089,0.631831 0.843915,0.138484 1.021546,-1.888786 0.146633,-1.673481 0.286479,-2.442065 0.727015,-3.99561 0.35941,-1.267456 0.780382,-2.41007 1.178529,-3.198794 0.28174,-0.558123 0.408577,-0.705159 0.491938,-0.570279 0.02632,0.04259 0.107804,1.185675 0.181076,2.540195 0.145686,2.693202 0.226084,3.099573 0.613228,3.099573 0.735469,0 0.954172,-1.452697 1.310593,-8.705357 l 0.175513,-3.571429 2.712986,-6.830357 c 1.492142,-3.756697 3.026705,-7.623884 3.41014,-8.59375 l 0.697154,-1.763393 2.481198,0 2.481198,0 -0.118194,0.392728 c -0.06501,0.216 -0.318329,0.728277 -0.562938,1.138393 -0.734252,1.231055 -3.396994,6.244745 -7.822401,14.728836 l -0.77364,1.483172 0.0026,3.0704 c 0.0027,3.187421 0.100036,5.217047 0.264967,5.525224 0.05272,0.09851 0.171663,0.179104 0.264318,0.179104 0.302324,0 1.801522,-1.669854 4.288607,-4.776786 1.564294,-1.954157 3.888156,-4.799021 4.266645,-5.223214 l 0.358497,-0.401786 0.04987,0.401786 c 0.160485,1.292969 0.09467,13.869465 -0.105348,20.131099 l -0.0598,1.87217 -2.276785,0.773381 -2.276786,0.773382 -0.183472,3.579586 c -0.100908,1.968772 -0.210787,3.606903 -0.244175,3.64029 -0.116977,0.116978 -1.81341,0.113332 -2.741996,-0.0059 l -3e-6,0 z"
       id="path5245"
       inkscape:connector-curvature="0" />
    <path
       style="fill:#b3b3b3;fill-opacity:1"
       d="m 42.053441,50.164132 c -0.09256,-0.132152 -0.138991,-0.400308 -0.138991,-0.802769 0,-0.548292 0.0399,-0.680988 0.430293,-1.431026 0.236661,-0.454682 0.889562,-1.513267 1.450892,-2.35241 0.860906,-1.286986 9.488797,-13.444491 9.509613,-13.399934 0.0038,0.0082 -0.02585,2.38547 -0.06596,5.282792 -0.0761,5.496285 -0.166232,7.465948 -0.351875,7.689634 -0.151966,0.183109 -0.740601,0.101173 -2.66939,-0.371569 -1.8514,-0.453774 -2.36755,-0.540497 -2.44745,-0.411217 -0.03182,0.05148 0.05384,0.155298 0.190337,0.230706 l 0.248185,0.137106 -0.384199,-0.05575 c -0.497179,-0.07214 -0.441943,-0.125667 -2.919465,2.829022 -1.706481,2.035147 -2.471714,2.853852 -2.667459,2.853852 -0.02505,0 -0.108084,-0.0893 -0.184529,-0.198438 z"
       id="path5247"
       inkscape:connector-curvature="0" />
    <path
       style="fill:#b3b3b3;fill-opacity:1"
       d="m 42.386762,28.773314 c -0.224037,-0.14238 4.415555,-11.089315 4.699935,-11.089315 0.253795,0 0.363534,1.539099 0.362703,5.086943 -6.78e-4,2.912507 -0.06462,4.525303 -0.225735,5.694307 l -0.0523,0.379464 -2.338279,-0.0014 c -1.286054,-7.14e-4 -2.3869,-0.03227 -2.446324,-0.07003 l 0,-1e-6 z"
       id="path5249"
       inkscape:connector-curvature="0" />
    <path
       style="fill:#b3b3b3;fill-opacity:1"
       d="m 47.584093,69.198559 c -1.169453,-0.127865 -1.400529,-0.361077 -0.736608,-0.743414 1.143541,-0.65854 4.849643,-1.153114 7.134475,-0.952086 0.943679,0.08303 1.898559,0.271689 2.184208,0.431547 0.07299,0.04085 -0.788435,0.291513 -2.131573,0.620255 -2.864767,0.701172 -4.46466,0.860826 -6.450502,0.643698 z"
       id="path5251"
       inkscape:connector-curvature="0" />
    <path
       style="fill:#333333;fill-opacity:1"
       d="m 42.090582,50.090156 c -0.0539,-0.10072 -0.09801,-0.444241 -0.09801,-0.763378 0,-0.524195 0.04243,-0.659608 0.439244,-1.401693 0.241585,-0.451794 0.670936,-1.180335 0.954114,-1.618982 0.839146,-1.299844 9.516763,-13.559564 9.799928,-13.845318 0.158373,-0.15982 -0.103089,11.806478 -0.271171,12.410714 -0.05964,0.214403 -0.129922,0.273342 -0.352177,0.295341 -0.152715,0.01512 -1.185116,-0.175732 -2.294223,-0.424107 -2.37407,-0.531653 -2.809082,-0.567547 -2.443126,-0.201591 0.08333,0.08333 0.04431,0.107143 -0.175595,0.107143 -0.356913,0 -0.479538,0.122025 -2.493842,2.481658 -1.609003,1.884846 -2.768503,3.143342 -2.896082,3.143342 -0.03908,0 -0.115159,-0.08241 -0.169063,-0.183129 z"
       id="path5253"
       inkscape:connector-curvature="0" />
    <path
       style="fill:#333333;fill-opacity:1"
       d="m 48.003461,77.055507 c -2.606417,-0.13321 -2.982603,-0.177067 -2.91743,-0.340125 0.231795,-0.579941 0.276116,-5.981166 0.05492,-6.692312 -0.06798,-0.218541 -0.06409,-0.304238 0.015,-0.331101 0.237894,-0.0808 2.921909,-0.219787 5.062073,-0.262139 1.961721,-0.03882 2.227364,-0.0288 1.919643,0.07242 l -0.357143,0.117473 -0.02331,3.677506 -0.02331,3.677506 0.201886,0.08112 c 0.241825,0.09716 -2.028359,0.09697 -3.932318,-3.4e-4 l 0,-3e-6 z"
       id="path5259"
       inkscape:connector-curvature="0" />
    <path
       style="fill:#a0a0a0;fill-opacity:1"
       d="m 42.158093,50.383023 c -0.108687,-0.05736 -0.233648,-0.299504 -0.286053,-0.554299 -0.02957,-0.14376 -0.03487,-0.715764 -0.0082,-0.880603 0.0207,-0.127785 0.07396,-0.287869 0.167633,-0.503879 0.401495,-0.925869 1.32389,-2.37784 3.254487,-5.122987 2.177968,-3.096887 8.066047,-11.313529 8.080331,-11.275866 0.0028,0.0075 -0.0026,0.09008 -0.01214,0.183587 -0.0095,0.0935 -0.02248,0.304955 -0.02883,0.469894 l -0.01153,0.299889 -0.0079,-0.415578 -0.0079,-0.415578 -0.206962,0.281417 c -1.021919,1.389559 -7.67414,10.766318 -8.972885,12.647894 -1.005869,1.457267 -1.817922,2.804638 -2.073937,3.441108 -0.103737,0.257897 -0.122025,0.357829 -0.130408,0.712631 -0.01046,0.442523 0.03554,0.772098 0.126097,0.903568 0.08397,0.121903 0.173749,0.214427 0.208066,0.214427 0.123574,0 0.561129,-0.422948 1.281807,-1.239016 0.211627,-0.239638 1.055168,-1.227441 1.661684,-1.945863 0.09002,-0.106633 0.166934,-0.190624 0.170912,-0.186646 0.01757,0.01757 -1.336025,1.661278 -1.827603,2.219319 -0.633134,0.718736 -1.15273,1.202192 -1.288477,1.198859 -0.01562,-3.79e-4 -0.05533,-0.01491 -0.08825,-0.03228 l 0,0 z"
       id="path5261"
       inkscape:connector-curvature="0" />
    <path
       style="fill:#a0a0a0;fill-opacity:1"
       d="m 52.540429,45.276845 c -0.378593,-0.02755 -0.780556,-0.0879 -1.144313,-0.17182 -0.378401,-0.0873 -1.377476,-0.346928 -1.354007,-0.351865 0.01152,-0.0024 0.184156,0.0352 0.38364,0.08361 1.152911,0.279791 1.68806,0.383399 2.052626,0.397399 0.251597,0.0097 0.316025,-2.12e-4 0.392154,-0.06009 0.180375,-0.141883 0.262596,-1.475848 0.341189,-5.535496 l 0.02893,-1.49436 -0.0073,1.38896 c -0.01771,3.36531 -0.06639,4.606888 -0.2104,5.366436 -0.03794,0.200075 -0.07702,0.304263 -0.128544,0.342656 -0.04262,0.03176 -0.192034,0.04635 -0.353965,0.03457 l 0,0 z"
       id="path5263"
       inkscape:connector-curvature="0" />
    <path
       style="fill:#a0a0a0;fill-opacity:1"
       d=""
       id="path5265"
       inkscape:connector-curvature="0" />
    <path
       style="fill:#a0a0a0;fill-opacity:1"
       d="m 53.037614,45.830051 c -0.685229,-0.02669 -0.958251,-0.064 -1.673065,-0.228604 -1.428019,-0.328844 -3.273311,-0.936262 -3.502152,-1.152808 -0.03593,-0.034 -0.03633,-0.03658 -0.0088,-0.0567 0.12901,-0.09434 1.194233,0.114249 2.595522,0.508235 1.016351,0.285757 1.702858,0.41828 2.161886,0.41733 0.217129,-4.5e-4 0.296889,-0.01637 0.341592,-0.06818 0.121247,-0.140517 0.222176,-1.044704 0.274242,-2.456828 0.03772,-1.023098 0.04742,-1.902725 0.0476,-4.316823 2.73e-4,-3.676361 0.03013,-5.345506 0.112848,-6.30966 0.01374,-0.160186 0.02645,-0.23003 0.04842,-0.266156 0.01638,-0.02694 0.03257,-0.0462 0.03597,-0.0428 0.02621,0.02621 0.07265,0.624849 0.102052,1.315313 0.06351,1.491671 0.07977,2.928296 0.09027,7.974681 l 0.0098,4.707468 -0.06159,-0.0022 c -0.03387,-0.0012 -0.292426,-0.01124 -0.574558,-0.02223 z"
       id="path5267"
       inkscape:connector-curvature="0" />
    <path
       style="fill:#a0a0a0;fill-opacity:1"
       d=""
       id="path5269"
       inkscape:connector-curvature="0" />
    <path
       style="fill:#a0a0a0;fill-opacity:1"
       d=""
       id="path5271"
       inkscape:connector-curvature="0" />
    <path
       style="fill:#a0a0a0;fill-opacity:1"
       d="m 48.223605,44.780243 c -0.415157,-0.08282 -0.551303,-0.09702 -0.649749,-0.06779 -0.0488,0.01449 -0.08595,0.0176 -0.102129,0.0085 -0.02079,-0.01163 -0.01601,-0.01751 0.02623,-0.03224 0.07465,-0.02602 0.196341,-0.02119 0.469161,0.01862 0.132386,0.01932 0.240701,0.03078 0.240701,0.02548 0,-0.0053 -0.06459,-0.04453 -0.14354,-0.08717 -0.144651,-0.07813 -0.266835,-0.169037 -0.266835,-0.198537 0,-0.0088 0.02237,0.0029 0.0497,0.02586 0.0659,0.05545 0.172575,0.108189 0.494833,0.244634 0.147577,0.06249 0.271281,0.11656 0.274898,0.120167 0.01749,0.01744 -0.11298,-0.0017 -0.393276,-0.05757 z"
       id="path5273"
       inkscape:connector-curvature="0" />
    <path
       style="fill:#a0a0a0;fill-opacity:1"
       d="m 48.278848,44.783594 c -0.206226,-0.03902 -0.215705,-0.04234 -0.142053,-0.0497 l 0.07892,-0.0079 -0.130928,-0.07689 c -0.07201,-0.04229 -0.128242,-0.07958 -0.124959,-0.08286 0.0055,-0.0055 0.5788,0.241773 0.593919,0.256108 0.01299,0.01231 -0.05748,0.0024 -0.274898,-0.03876 z"
       id="path5275"
       inkscape:connector-curvature="0" />
    <path
       style="fill:#a0a0a0;fill-opacity:1"
       d=""
       id="path5277"
       inkscape:connector-curvature="0" />
    <path
       style="fill:#a0a0a0;fill-opacity:1"
       d="m 47.775136,44.380897 c 0.01513,-0.03943 0.08561,-0.0574 0.216403,-0.05517 l 0.129473,0.0022 -0.118926,0.01141 c -0.06541,0.0063 -0.14141,0.02304 -0.16889,0.03725 -0.06076,0.03142 -0.06869,0.03201 -0.05806,0.0043 z"
       id="path5279"
       inkscape:connector-curvature="0" />
    <path
       style="fill:#a0a0a0;fill-opacity:1"
       d="m 53.230094,41.222032 c 3.22e-4,-0.02604 0.0039,-0.03479 0.0079,-0.01943 0.004,0.01536 0.0037,0.03666 -5.85e-4,0.04735 -0.0043,0.01069 -0.0076,-0.0019 -0.0073,-0.02792 z"
       id="path5281"
       inkscape:connector-curvature="0" />
    <path
       style="fill:#a0a0a0;fill-opacity:1"
       d="m 41.436643,52.204359 c 0,-0.006 0.01676,-0.02912 0.03725,-0.0513 0.07147,-0.07737 1.099607,-1.359287 2.038787,-2.542029 1.62898,-2.05143 2.47027,-3.081883 3.228826,-3.954819 0.28487,-0.327825 0.559324,-0.618459 0.572255,-0.605991 0.0049,0.0047 -0.06719,0.09349 -0.160149,0.197304 -0.460382,0.514135 -2.031444,2.42757 -4.036318,4.915933 -1.717275,2.131408 -1.680648,2.086931 -1.680648,2.040899 z"
       id="path5283"
       inkscape:connector-curvature="0" />
    <path
       style="fill:#a0a0a0;fill-opacity:1"
       d="m 47.482115,50.198973 c -6.47e-4,-2.378226 -0.0228,-3.92083 -0.06467,-4.502281 -0.02288,-0.317749 -0.06414,-0.637697 -0.08393,-0.650833 -0.01097,-0.0073 -0.0076,-0.01169 0.0091,-0.01184 0.01461,-1.33e-4 0.0305,0.01219 0.03531,0.02738 0.0197,0.06215 0.05776,0.360486 0.08004,0.627399 0.07107,0.851647 0.07546,1.056284 0.08257,3.847261 l 0.0068,2.679272 -0.03235,0 -0.03235,0 -5.48e-4,-2.01636 0,0 z"
       id="path5285"
       inkscape:connector-curvature="0" />
    <path
       style="fill:#a0a0a0;fill-opacity:1"
       d=""
       id="path5287"
       inkscape:connector-curvature="0" />
    <path
       style="fill:#a0a0a0;fill-opacity:1"
       d=""
       id="path5289"
       inkscape:connector-curvature="0" />
    <path
       style="fill:#a0a0a0;fill-opacity:1"
       d=""
       id="path5291"
       inkscape:connector-curvature="0" />
    <path
       style="fill:#a0a0a0;fill-opacity:1"
       d="m 42.167479,50.372569 c -0.09955,-0.04973 -0.22036,-0.273944 -0.278506,-0.51689 -0.03936,-0.164472 -0.04012,-0.840909 -0.0011,-0.986477 0.104867,-0.391262 0.477113,-1.124097 1.002168,-1.972954 0.468308,-0.757115 1.149229,-1.774114 2.087133,-3.117267 1.05051,-1.504416 5.380121,-7.575413 5.393186,-7.562348 0.0045,0.0045 -0.399925,0.582073 -0.898678,1.283541 -2.145422,3.017412 -5.012914,7.083026 -5.530558,7.841386 -1.059281,1.551871 -1.855169,2.927955 -1.987499,3.43637 -0.0778,0.298919 -0.04828,1.086184 0.04951,1.320227 0.04769,0.114131 0.193956,0.270274 0.253311,0.270412 0.0997,2.32e-4 0.48844,-0.359034 1.00754,-0.931156 0.199419,-0.219786 1.126332,-1.293274 1.530135,-1.772097 0.04227,-0.05013 0.08025,-0.08775 0.08438,-0.08362 0.0082,0.0082 -0.103076,0.146 -0.58696,0.727185 -0.945857,1.136054 -1.577607,1.808345 -1.904301,2.026502 -0.107973,0.0721 -0.13926,0.0774 -0.219755,0.03718 z"
       id="path5293"
       inkscape:connector-curvature="0" />
    <path
       style="fill:#a0a0a0;fill-opacity:1"
       d="m 42.173463,50.37754 c -0.09621,-0.04187 -0.220618,-0.26372 -0.277338,-0.494549 -0.02977,-0.121168 -0.03397,-0.184463 -0.03481,-0.524496 -0.0011,-0.437507 0.0024,-0.458649 0.127496,-0.78129 0.09289,-0.239532 0.377445,-0.800925 0.588022,-1.160097 0.52812,-0.900794 1.29056,-2.054795 2.476684,-3.748613 0.695442,-0.993111 4.360783,-6.143064 5.249366,-7.375572 0.03312,-0.04594 0.0637,-0.08006 0.06794,-0.07582 0.0042,0.0042 -0.425198,0.617146 -0.954312,1.362008 -2.861637,4.028476 -5.094674,7.200038 -5.632089,7.999204 -0.737782,1.097122 -1.276894,1.987187 -1.594433,2.632383 -0.243661,0.495086 -0.276333,0.626973 -0.275885,1.113667 3.86e-4,0.419444 0.03249,0.670345 0.103304,0.80728 0.04093,0.07914 0.19778,0.237003 0.235493,0.237003 0.174753,0 0.82695,-0.68675 2.312528,-2.435046 0.168011,-0.197723 0.308877,-0.356096 0.313033,-0.351939 0.0082,0.0082 -0.102686,0.145609 -0.586925,0.72722 -0.964586,1.158549 -1.610355,1.843293 -1.925905,2.04214 -0.08581,0.05407 -0.11849,0.05858 -0.192167,0.02652 l 0,0 z"
       id="path5295"
       inkscape:connector-curvature="0" />
    <path
       style="fill:#a0a0a0;fill-opacity:1"
       d=""
       id="path5297"
       inkscape:connector-curvature="0" />
    <path
       style="fill:#a0a0a0;fill-opacity:1"
       d="m 48.525572,69.304734 c -0.2165,-0.0056 -0.59329,-0.02799 -0.831473,-0.04932 -0.699507,-0.06264 -1.128142,-0.162573 -1.259119,-0.29355 -0.03596,-0.03596 -0.0411,-0.04781 -0.0411,-0.09475 0,-0.114918 0.119245,-0.269309 0.301339,-0.390156 0.08772,-0.05821 0.391543,-0.208405 0.530134,-0.262065 0.922925,-0.357336 2.553528,-0.650568 4.229911,-0.760666 1.64929,-0.108319 3.093767,-0.03153 4.001116,0.212708 0.167771,0.04516 1.031484,0.307236 1.040557,0.315735 0.0045,0.0042 -0.176299,0.05216 -0.401786,0.106524 -0.610207,0.147128 -2.03725,0.503114 -2.904396,0.724522 -0.861856,0.220056 -0.930963,0.236143 -1.25,0.290962 -0.902283,0.155038 -2.207826,0.231516 -3.415179,0.200058 l 0,0 z m 1.241018,-0.02649 c 0.912065,-0.04653 1.8277,-0.177493 3.039116,-0.434698 1.094694,-0.232423 2.954966,-0.713071 3.269519,-0.844762 0.137873,-0.05772 0.132437,-0.06757 -0.0777,-0.140691 -0.467166,-0.162571 -1.426667,-0.323293 -2.248744,-0.376678 -0.467467,-0.03036 -1.402861,-0.03054 -1.936384,-3.71e-4 -1.823298,0.10309 -3.589503,0.407489 -4.581473,0.789602 -0.27421,0.105627 -0.53235,0.252618 -0.655266,0.373124 -0.08333,0.0817 -0.100221,0.118922 -0.09418,0.207588 0.0045,0.06605 0.120359,0.14639 0.292271,0.202667 0.307118,0.100536 0.989131,0.186356 1.813207,0.228161 0.177123,0.009 0.978723,0.0063 1.179634,-0.0039 z"
       id="path5299"
       inkscape:connector-curvature="0" />
    <path
       style="fill:#a0a0a0;fill-opacity:1"
       d="m 30.640165,61.136648 c 0.0022,-0.03472 0.0092,-0.128834 0.01562,-0.209133 0.0064,-0.0803 0.02054,-0.302257 0.03143,-0.493239 0.02711,-0.475661 0.032,-0.545441 0.05498,-0.784247 0.08185,-0.850792 0.258424,-1.73821 0.581215,-2.920961 0.344705,-1.263046 0.7967,-2.526593 1.200504,-3.355995 l 0.08741,-0.179539 0.03422,0 c 0.01882,0 0.03422,0.0013 0.03422,0.0028 0,0.0016 -0.04765,0.1001 -0.10589,0.218998 -0.475647,0.971042 -0.943262,2.320716 -1.349053,3.893765 -0.264059,1.023625 -0.369961,1.677957 -0.510268,3.15278 -0.04446,0.46734 -0.08377,0.823984 -0.07437,0.674751 z"
       id="path5301"
       inkscape:connector-curvature="0" />
    <path
       style="fill:#a0a0a0;fill-opacity:1"
       d="m 42.193394,28.904292 c 0,-0.04106 4.814512,-0.0408 4.950723,2.65e-4 0.03324,0.01002 -1.067074,0.01908 -2.445143,0.02014 -1.656785,0.0013 -2.50558,-0.0056 -2.50558,-0.0204 z"
       id="path5303"
       inkscape:connector-curvature="0" />
    <path
       style="fill:#a0a0a0;fill-opacity:1"
       d="m 45.061967,33.062107 c 0.04213,-0.08147 0.464005,-0.86049 0.668455,-1.234345 0.319299,-0.583868 0.525902,-0.952725 0.726038,-1.296231 0.191877,-0.329331 0.272303,-0.477014 0.388944,-0.71421 0.100721,-0.204822 0.157203,-0.332911 0.196975,-0.446699 0.01672,-0.04784 0.132247,-0.428489 0.132247,-0.435744 0,-0.0019 -1.084109,-0.003 -2.482616,-0.0024 l -2.482617,9.9e-4 -0.213425,0.539892 -0.213425,0.539892 -0.0011,-0.054 -0.0011,-0.054 0.05575,-0.140623 c 0.05336,-0.134598 0.355121,-0.885414 0.356621,-0.887315 7.49e-4,-9.49e-4 2.268466,-0.01232 2.697234,-0.01352 0.144172,-4.05e-4 0.02084,-0.0019 -0.303834,-0.0037 -1.816672,-0.0099 -2.343926,-0.02356 -2.358353,-0.06115 -0.0019,-0.005 0.488571,-1.229211 0.496005,-1.23794 0.0015,-0.0018 0.01084,-0.0026 0.02075,-0.002 l 0.01803,0.0012 -0.01965,0.0513 c -0.03624,0.09459 -0.141969,0.385473 -0.185746,0.510996 -0.109719,0.314597 -0.165556,0.502392 -0.177505,0.596994 -0.0077,0.06134 -0.0085,0.06093 0.132894,0.07362 0.204597,0.01836 0.511538,0.02942 1.225204,0.04417 0.1225,0.0025 0.84385,0.005 1.765118,0.0061 0.856877,0.001 1.557358,0.0025 1.556626,0.0032 -0.0031,0.0031 -0.172246,0.01075 -0.298592,0.01347 -0.132124,0.0028 -0.133669,0.003 -0.04596,0.0036 0.193195,0.0014 0.38619,0.01296 0.437254,0.02626 0.04993,0.013 0.05605,0.02081 0.05235,0.06672 -0.01312,0.162851 -0.09823,0.474809 -0.182588,0.669223 -0.03098,0.07139 -0.05198,0.110107 -0.101657,0.18743 -0.239219,0.372321 -0.624627,1.044521 -1.179841,2.057792 -0.162014,0.295678 -0.464921,0.853537 -0.598843,1.102881 l -0.05298,0.09865 -0.0167,0.0012 -0.0167,0.0012 0.0067,-0.01304 z m 0.615187,-4.138569 c 0.828152,-0.0038 1.3882,-0.0094 1.439524,-0.01425 0.01479,-0.0014 0.0254,-0.0041 0.02358,-0.0059 -0.0089,-0.0089 -0.284204,-0.01685 -0.8357,-0.02404 -0.512157,-0.0067 -2.878202,-0.0067 -3.359941,-2.4e-5 -0.602627,0.0083 -0.810308,0.01651 -0.739858,0.0291 0.0869,0.01552 1.78012,0.02289 3.472399,0.0151 l 0,0 z"
       id="path5305"
       inkscape:connector-curvature="0" />
  </g>
</svg>
