<?xml version="1.0" encoding="UTF-8" standalone="no"?>
<!-- Created with Inkscape (http://www.inkscape.org/) -->

<svg
   xmlns:dc="http://purl.org/dc/elements/1.1/"
   xmlns:cc="http://creativecommons.org/ns#"
   xmlns:rdf="http://www.w3.org/1999/02/22-rdf-syntax-ns#"
   xmlns:svg="http://www.w3.org/2000/svg"
   xmlns="http://www.w3.org/2000/svg"
   xmlns:sodipodi="http://sodipodi.sourceforge.net/DTD/sodipodi-0.dtd"
   xmlns:inkscape="http://www.inkscape.org/namespaces/inkscape"
   width="100"
   height="100"
   id="svg4097"
   version="1.1"
   inkscape:version="0.48.4 r9939"
   sodipodi:docname="New document 24">
  <defs
     id="defs4099" />
  <sodipodi:namedview
     id="base"
     pagecolor="#ffffff"
     bordercolor="#666666"
     borderopacity="1.0"
     inkscape:pageopacity="0.0"
     inkscape:pageshadow="2"
     inkscape:zoom="5.6"
     inkscape:cx="15.446429"
     inkscape:cy="27.06688"
     inkscape:document-units="px"
     inkscape:current-layer="layer3"
     showgrid="false"
     inkscape:window-width="1920"
     inkscape:window-height="1031"
     inkscape:window-x="0"
     inkscape:window-y="25"
     inkscape:window-maximized="1" />
  <metadata
     id="metadata4102">
    <rdf:RDF>
      <cc:Work
         rdf:about="">
        <dc:format>image/svg+xml</dc:format>
        <dc:type
           rdf:resource="http://purl.org/dc/dcmitype/StillImage" />
        <dc:title></dc:title>
      </cc:Work>
    </rdf:RDF>
  </metadata>
  <g
     inkscape:label="Layer 1"
     inkscape:groupmode="layer"
     id="layer1"
     transform="translate(0,-952.36218)">
    <path
       sodipodi:type="arc"
       style="fill:#ececec;fill-opacity:1"
       id="path4615"
       sodipodi:cx="0"
       sodipodi:cy="0.49997419"
       sodipodi:rx="38.133259"
       sodipodi:ry="37.880722"
       d="m 38.133259,0.49997419 a 38.133259,37.880722 0 1 1 -76.266518,0 38.133259,37.880722 0 1 1 76.266518,0 z"
       transform="translate(51.012704,1002.3647)" />
    <path
       style="fill:#ff7500;fill-opacity:1"
       d="m 48.718202,1044.8705 c -14.292069,-0.6686 -27.340383,-8.4241 -34.72227,-20.6404 -2.593553,-4.2926 -4.7762033,-10.3309 -5.5769033,-15.4306 -0.4594801,-2.9249 -0.4560384,-10.19283 0.00544,-12.94121 2.2697173,-13.49728 10.4889423,-24.89659 22.4435453,-31.12689 14.779394,-7.70229 32.661646,-6.09888 45.915855,4.11744 7.955753,6.13219 13.448904,14.92577 15.651042,25.05447 0.543757,2.50111 0.641473,3.79532 0.641473,8.49689 0,4.7082 -0.09723,5.9953 -0.644466,8.511 -3.669262,16.8835 -16.509927,29.6556 -33.311276,33.1372 -1.945116,0.4036 -3.187371,0.5355 -7.70932,0.8229 -0.623832,0.033 -1.836046,0.033 -2.693811,-7e-4 l 0,-10e-5 z"
       id="path5125"
       inkscape:connector-curvature="0" />
    <path
       style="fill:#ddff00;fill-opacity:0"
       d="m 52.293478,1031.7717 c -0.840804,-0.1676 -3.46354,-0.3146 -5.828301,-0.3267 l -4.299567,-0.022 -0.0806,-4.1085 -0.0806,-4.1085 -0.12386,3.9174 -0.12386,3.9174 -1.037635,0 c -1.236051,0 -7.744834,-1.1119 -8.212929,-1.4012 -0.179936,-0.1112 -1.285804,-0.27 -2.457487,-0.3527 -1.171683,-0.083 -2.364345,-0.3448 -2.650352,-0.5821 -0.398186,-0.3306 -0.520022,-1.8382 -0.520022,-6.4351 0,-5.6439 0.05711,-6.1159 0.953862,-7.8835 0.524623,-1.0341 0.955612,-2.0521 0.95776,-2.2623 0.0023,-0.2102 0.670453,-2.102 1.485135,-4.2041 1.16725,-3.0116 1.652841,-3.8477 2.290801,-3.9439 0.704366,-0.1063 0.809869,-0.3794 0.811902,-2.102 0.0019,-1.6603 0.98307,-4.43848 6.078002,-17.21118 3.341616,-8.3772 6.237462,-15.39312 6.435213,-15.59087 0.224606,-0.22461 4.752075,2.26447 12.063403,6.63217 l 11.703856,6.9917 0.0042,8.217 0.0042,8.2169 -1.520575,1.07578 -1.520576,1.0758 0,3.5906 0,3.5906 1.528735,0.4581 1.528735,0.458 0,10.9953 0,10.9953 -2.006464,0.2029 c -3.718442,0.3759 -13.841556,0.5081 -15.382894,0.2009 z m 15.000709,-0.9574 1.624281,-0.2026 0,-10.2376 0,-10.2375 -1.541702,-0.6056 -1.541699,-0.6056 0.10851,-5.6629 0.108513,-5.66278 1.441406,0.085 1.441402,0.085 -0.103759,-7.325 -0.103763,-7.3251 -10.957943,-6.5803 c -6.026869,-3.6192 -11.057361,-6.4809 -11.178872,-6.3594 -0.291146,0.2911 -0.278376,5.9851 0.02208,9.8436 l 0.238423,3.062 2.689898,1.1437 c 1.479445,0.629 2.750322,1.325 2.824173,1.5465 0.07385,0.2216 -2.448804,3.9898 -5.605898,8.3739 -3.793165,5.2674 -5.740173,8.29968 -5.740173,8.93998 0,1.1001 -0.129171,1.2149 2.860632,-2.5419 1.218872,-1.53148 2.373502,-2.73218 2.565845,-2.66798 0.20219,0.067 0.336159,5.00268 0.317583,11.69938 l -0.03213,11.5829 0.870326,-0.3157 c 1.091139,-0.3958 7.29831,-0.2142 9.087276,0.2659 0.980522,0.2632 0.212201,0.3182 -2.877853,0.2063 -3.225448,-0.1168 -4.796238,0.01 -6.688215,0.5251 l -2.472719,0.6778 2.484194,0.2657 c 1.73125,0.1852 3.237138,0.088 4.968388,-0.3209 1.366307,-0.3227 3.258116,-0.5686 4.204021,-0.5464 l 1.719826,0.04 -1.62428,0.3906 -1.624281,0.3906 0,4.2715 0,4.2715 5.446117,-0.1337 c 2.995365,-0.074 6.177044,-0.2249 7.070398,-0.3363 z m -13.280882,-3.7938 0,-4.0202 -1.051006,0.2303 c -0.578052,0.1267 -1.265983,0.2966 -1.528734,0.3775 -0.335714,0.1034 -0.47773,1.1657 -0.47773,3.5734 l 0,3.4263 1.051005,0.1592 c 0.578053,0.088 1.265984,0.185 1.528735,0.2165 0.355536,0.043 0.47773,-0.971 0.47773,-3.963 z m -10.31896,-0.015 c 0,-2.3383 -0.137575,-3.5683 -0.382184,-3.4172 -0.420807,0.2601 -0.535708,6.4074 -0.127394,6.8156 0.476441,0.4765 0.509578,0.2555 0.509578,-3.3984 z m 6.497123,0.2545 c 0,-3.9057 0.03864,-3.8627 -3.470911,-3.8627 l -2.261844,0 0,3.6307 0,3.6307 2.866377,0 2.866378,0 z m -9.090233,-0.8806 0.108916,-3.8973 2.388648,-0.7026 2.388648,-0.7027 0,-10.6875 c 0,-5.8781 -0.07594,-10.68738 -0.168754,-10.68738 -0.09282,0 -0.993489,1.07488 -2.001499,2.38858 -1.008009,1.3138 -2.186291,2.7326 -2.618404,3.153 -0.432112,0.4204 -1.442521,1.5796 -2.245352,2.5759 -0.802831,0.9962 -1.612402,1.717 -1.799046,1.6017 -0.186644,-0.1154 -0.302827,-2.1344 -0.258184,-4.4868 l 0.08117,-4.277 0.123191,4.1418 0.12319,4.1417 1.515468,-1.9033 c 1.253937,-1.5749 1.515467,-2.1971 1.515467,-3.6051 0,-1.5825 0.387761,-2.2393 5.541663,-9.38508 3.047915,-4.2259 5.541104,-7.8211 5.54042,-7.9893 -6.88e-4,-0.1682 -1.204563,-0.7994 -2.675286,-1.4025 -2.595329,-1.0644 -2.675473,-1.1375 -2.722664,-2.4842 -0.02674,-0.7632 -0.155729,-3.2683 -0.286638,-5.567 l -0.238015,-4.1794 -5.441669,13.734 -5.441669,13.7341 -0.242593,5.73268 c -0.173436,4.0985 -0.410113,6.0223 -0.830215,6.7482 -1.021721,1.7656 -1.608418,0.9426 -1.63837,-2.2984 l -0.02698,-2.921 -0.791717,1.7198 c -0.474584,1.0309 -0.886131,2.9445 -1.027428,4.7773 -0.232341,3.0137 -0.52624,4.0129 -1.180309,4.0129 -0.183173,0 -0.407576,-0.387 -0.498673,-0.8599 -0.09109,-0.473 -0.189047,1.8304 -0.217673,5.1186 -0.05628,6.4648 -0.0635,6.4424 2.081223,6.4424 0.915647,0 0.9242,-0.035 0.9242,-3.8083 0,-3.3741 0.0843,-3.8536 0.739243,-4.2041 0.406582,-0.2175 0.836539,-0.3956 0.955459,-0.3956 0.118921,0 0.216217,1.5264 0.216217,3.3919 0,5.769 -0.131173,5.5618 3.953053,6.244 1.924741,0.3215 3.6225,0.6067 3.772797,0.6338 0.150297,0.027 0.32228,-1.7045 0.382184,-3.8479 z m -8.973665,-3.651 c -0.07873,-0.9984 -0.143143,-0.1815 -0.143143,1.8154 0,1.9969 0.06441,2.8138 0.143143,1.8154 0.07873,-0.9985 0.07873,-2.6323 0,-3.6308 z m -3.074939,-8.0258 c -0.09613,-0.3679 -0.17478,-0.067 -0.17478,0.6688 0,0.7357 0.07865,1.0367 0.17478,0.6688 0.09613,-0.3678 0.09613,-0.9698 0,-1.3376 z m 4.316902,-6.8793 c 0.0034,-1.8511 -0.151952,-3.153 -0.376332,-3.153 -0.229055,0 -0.379837,1.493 -0.376329,3.7262 0.004,2.5471 0.123098,3.5449 0.376329,3.1531 0.203765,-0.3153 0.373114,-1.9922 0.376332,-3.7263 z m 34.363642,-8.64798 c 0.343384,-0.4138 0.271515,-0.5699 -0.335385,-0.7286 -0.57563,-0.1505 -0.772424,-0.016 -0.772424,0.5266 0,0.8555 0.49111,0.9451 1.107809,0.202 z"
       id="path5138"
       inkscape:connector-curvature="0"
       sodipodi:nodetypes="cccccccscccsscscsssscccccccccccsccccccccccccccssscssssscsccsscccsscccccccscccsccsssccssscccccsccccssssccscccsssccsscccssscssssssscssscccsssssssssssssssss" />
  </g>
  <g
     inkscape:groupmode="layer"
     id="layer3"
     inkscape:label="Layer">
    <g
       id="g5152"
       transform="matrix(0.38340534,0,0,0.38340534,25.748513,21.923339)">
      <path
         style="fill:#a0a0a0"
         d="m 69.82143,145.37516 c -1.925,-0.52009 -7.55,-0.95002 -12.5,-0.9554 -13.347148,-0.0145 -14.145106,-0.0689 -25,-1.70425 -5.5,-0.8286 -10.711518,-2.13312 -11.581152,-2.89892 -0.869633,-0.76581 -1.898036,-1.0755 -2.28534,-0.68819 -0.963003,0.963 -7.495263,0.44452 -9.775671,-0.77591 -1.69744,-0.90845 -1.857837,-2.4469 -1.857837,-17.81956 0,-16.2979 0.07836,-16.94074 2.5,-20.50922 1.375,-2.026178 2.5,-4.560868 2.5,-5.632648 0,-1.07178 1.622227,-6.00179 3.604949,-10.95559 2.763985,-6.90577 4.047026,-9.0069 5.5,-9.0069 1.617045,0 1.895051,-0.76263 1.895051,-5.198551 0,-4.379234 2.530769,-11.536888 16.057669,-45.415141 8.831719,-22.119125 16.608488,-40.427959 17.281711,-40.686299 1.071642,-0.411228 55.76833,31.654715 60.03415,35.19503 1.40252,1.163986 1.62647,4.097263 1.62647,21.303073 l 0,19.953223 -2.60498,2.174333 c -6.45374,5.386818 -6.39578,5.26943 -6.38137,12.924332 0.0181,9.58418 0.65621,11.63623 3.85584,12.39883 5.21225,1.24227 5.13051,0.77462 5.13051,29.351168 0,20.20123 -0.3062,27.00138 -1.25,27.76046 -1.69233,1.36112 -42.289898,2.39115 -46.75,1.18613 z m 7.5,-24.50462 3,-0.72911 -2.5,-0.75675 c -6.650751,-2.01319 -24,0.21907 -24,3.08799 0,1.36575 11.069231,1.56737 16,0.29143 2.475,-0.64045 5.85,-1.49256 7.5,-1.89356 z"
         id="path5166"
         inkscape:connector-curvature="0"
         sodipodi:nodetypes="sssssssssssssssscssssssscssss" />
      <path
         style="fill:#eccf24"
         d="m 73.519226,144.79303 c -0.251367,-0.25136 -5.798703,-0.5487 -12.327414,-0.66074 -6.52871,-0.11205 -12.432882,-0.56778 -13.120382,-1.01274 -0.836234,-0.54122 -1.25,-3.58355 -1.25,-9.19098 0,-5.60743 0.413766,-8.64976 1.25,-9.19098 0.6875,-0.44496 6.65,-0.92371 13.25,-1.06388 14.857638,-0.31555 16.438672,-0.48551 19.278008,-2.07235 3.556315,-1.98756 1.922191,-2.85346 -6.824993,-3.61649 -8.146903,-0.71066 -12.082757,-0.16408 -23.953015,3.32641 l -5.5,1.61729 -0.292469,8.99247 c -0.160858,4.94586 -0.701714,9.40171 -1.201902,9.9019 -1.18149,1.18149 -18.777231,-1.30883 -20.348289,-2.87989 -0.643984,-0.64398 -3.417834,-1.13891 -6.16411,-1.09984 -8.795161,0.12513 -8.49323,0.71707 -8.49323,-16.65112 0,-14.67145 0.102588,-15.45022 2.5,-18.97833 1.375,-2.0235 2.5,-4.706688 2.5,-5.962668 0,-1.25597 1.655563,-6.46649 3.67903,-11.57893 2.901191,-7.33009 4.16974,-9.41851 6,-9.87788 2.08132,-0.52238 2.32097,-1.15911 2.32097,-6.166609 0,-4.867804 1.997671,-10.594045 15.573779,-44.641591 8.565578,-21.481631 15.9128,-39.407232 16.32716,-39.83467 0.693747,-0.715644 54.377371,30.631543 58.349061,34.071448 1.55624,1.347873 1.75,3.698621 1.75,21.231797 l 0,19.716111 -3.52546,2.378902 c -4.32004,2.915067 -4.63844,4.061805 -4.26861,15.373912 l 0.29407,8.995 3.75,1.76287 3.75,1.76286 0,27.354608 0,27.35461 -8.25,0.66768 c -8.99722,0.72815 -34.316226,0.7078 -35.052204,-0.0282 z M 72.82143,43.761905 c 0,-10.266666 -0.26393,-18.402737 -0.586511,-18.080156 -0.32258,0.322581 -0.530759,8.235627 -0.462619,17.584548 0.07696,10.559108 -0.260679,17.235714 -0.89133,17.625477 -0.558371,0.345092 -3.356867,-0.06795 -6.218881,-0.917881 -2.862014,-0.849926 -5.909486,-1.501203 -6.77216,-1.447282 -2.348924,0.14682 8.999086,3.690467 12.181501,3.803922 l 2.75,0.09804 z"
         id="path5164"
         inkscape:connector-curvature="0"
         sodipodi:nodetypes="csssssssscsssssssssssssscsscccccsccssssssscs" />
      <path
         style="fill:#27a9db"
         d="m 71.07143,144.26451 -3.25,-0.89312 0,-9.34977 0,-9.34977 4.189649,-1.06345 c 2.304306,-0.58489 4.541596,-0.84593 4.971754,-0.58008 1.054318,0.65161 5.945213,-2.61822 5.351982,-3.57809 -0.258193,-0.41777 -4.110359,-1.07718 -8.56037,-1.46536 -8.146903,-0.71066 -12.082757,-0.16408 -23.953015,3.32641 l -5.5,1.61729 -0.292469,8.99247 c -0.160858,4.94586 -0.701714,9.40171 -1.201902,9.9019 -1.18149,1.18149 -18.777231,-1.30883 -20.348289,-2.87989 -0.643984,-0.64398 -3.417834,-1.13891 -6.16411,-1.09984 -8.805716,0.12528 -8.49323,0.74646 -8.49323,-16.88326 0,-14.38529 0.153122,-15.6845 2.075049,-17.60643 1.141278,-1.14128 2.308778,-3.728778 2.594446,-5.749998 0.285668,-2.02122 2.132459,-7.8491 4.10398,-12.95083 2.841704,-7.35352 4.065589,-9.39661 5.905555,-9.85841 2.08132,-0.52238 2.32097,-1.15911 2.32097,-6.166609 0,-4.867804 1.997671,-10.594045 15.573779,-44.641591 8.565578,-21.481631 15.9128,-39.407232 16.32716,-39.83467 0.693747,-0.715644 54.377371,30.631543 58.349061,34.071448 1.55624,1.347873 1.75,3.698621 1.75,21.231797 l 0,19.716111 -3.52546,2.378902 c -4.32004,2.915067 -4.63844,4.061805 -4.26861,15.373912 l 0.29407,8.995 3.75,1.76287 3.75,1.76286 0,27.354608 0,27.35461 -8.25,0.66768 c -11.00779,0.89087 -33.444451,0.55779 -37.5,-0.5567 z M 50.084151,66.884136 c 3.169497,-4.10056 6.360478,-7.455564 7.091069,-7.455564 0.730592,0 3.537367,0.670129 6.237279,1.489176 2.699912,0.819046 5.921431,1.494046 7.158931,1.5 l 2.25,0.01082 0,-18.644648 0,-18.644649 -15.456269,21.394649 c -12.21727,16.911209 -15.465433,22.075714 -15.5,24.644648 -0.02663,1.97923 0.445027,3.23263 1.206269,3.20556 0.6875,-0.0244 3.843225,-3.399436 7.012721,-7.499992 z m -2.839079,75.206044 c -0.282474,-0.73612 -0.380851,-4.89374 -0.218615,-9.23916 0.246039,-6.59008 0.585287,-7.9562 2.044973,-8.23493 1.568071,-0.29943 1.75,0.66107 1.75,9.23916 0,7.93015 -0.262848,9.57332 -1.531385,9.57332 -0.842261,0 -1.762499,-0.60228 -2.044973,-1.33839 z"
         id="path5162"
         inkscape:connector-curvature="0"
         sodipodi:nodetypes="scccssssscsssssssssssssscsscccccsssssscccsscsssssss" />
      <path
         style="fill:#96358f"
         d="m 71.07143,144.32783 -3.25,-0.95644 0,-9.34977 0,-9.34977 4.11755,-1.04515 c 6.764968,-1.71713 6.985059,-1.36475 6.665069,10.67138 -0.314227,11.81941 -0.520068,12.09349 -7.532619,10.02975 z m -23.826358,-2.23765 c -0.282474,-0.73612 -0.380851,-4.89374 -0.218615,-9.23916 0.246039,-6.59008 0.585287,-7.9562 2.044973,-8.23493 1.568071,-0.29943 1.75,0.66107 1.75,9.23916 0,7.93015 -0.262848,9.57332 -1.531385,9.57332 -0.842261,0 -1.762499,-0.60228 -2.044973,-1.33839 z M 29.47277,140.98862 c -3.766762,-0.69371 -7.247372,-1.89101 -7.734687,-2.66067 -0.487315,-0.76966 -0.892918,-5.82438 -0.90134,-11.23271 -0.01155,-7.41513 -0.322712,-9.73173 -1.265313,-9.42015 -0.840869,0.27795 -1.413653,3.6601 -1.75,10.33333 l -0.5,9.92015 -3.266136,-0.1492 c -6.405837,-0.29263 -6.233864,0.17136 -6.233864,-16.81942 0,-14.37693 0.153981,-15.68536 2.071576,-17.60296 1.139367,-1.13936 2.426573,-4.176858 2.860457,-6.749998 0.828553,-4.9137 4.555392,-15.00761 6.139485,-16.62842 0.573187,-0.58647 0.928482,1.97392 0.928482,6.69098 0,4.20254 0.399012,7.88759 0.886693,8.18899 2.050216,1.26711 2.890668,-2.76135 3.532085,-16.92997 l 0.679054,-15 15.081351,-37.84824 c 10.099245,-25.345119 15.363608,-37.402851 15.935772,-36.5 0.469931,0.741532 0.86131,7.772101 0.869732,15.623487 l 0.01531,14.275247 7.5,3.41786 c 4.125,1.879823 7.5,3.69997 7.5,4.044772 0,0.344802 -6.75,9.999171 -15,21.454155 -11.635349,16.155482 -15,21.523219 -15,23.929981 0,1.839228 0.509032,3.084638 1.25,3.058298 0.6875,-0.0244 3.843225,-3.399436 7.012721,-7.499996 3.169497,-4.10056 6.094497,-7.455917 6.5,-7.456348 0.405504,-4.31e-4 0.512279,13.387064 0.237279,29.750004 l -0.5,29.750778 -6,2.02412 -6,2.02412 -0.5,9.47588 -0.5,9.47588 -3.5,0.16067 c -1.925,0.0884 -6.581897,-0.40692 -10.348657,-1.10062 z m 79.53224,-80.310048 c 0.25934,-2.253926 0.75625,-2.701013 2.75465,-2.478439 3.39206,0.377796 3.65407,0.916476 1.56732,3.222308 -2.65825,2.937331 -4.70501,2.585057 -4.32197,-0.743869 z"
         id="path5160"
         inkscape:connector-curvature="0"
         sodipodi:nodetypes="scccsssssssssssssscsssssssscssscsssscsssccccccsssss" />
      <path
         style="fill:#616161"
         d="m 74.32143,144.8811 c -0.55,-0.15268 -2.2375,-0.55052 -3.75,-0.88411 l -2.75,-0.60652 0,-9.35595 0,-9.35595 3.125,-0.625 c 6.041744,-1.20835 5.875,-1.48695 5.875,9.81598 0,10.07515 -0.348202,11.60885 -2.5,11.01155 z m 3.874067,-10.95253 c 0.0023,-6.05 0.166961,-8.39607 0.366011,-5.21349 0.19905,3.18258 0.197204,8.13258 -0.0041,11 -0.201308,2.86742 -0.364167,0.26349 -0.361911,-5.78651 z m -48.722727,7.06005 c -3.766762,-0.69371 -7.247372,-1.89101 -7.734687,-2.66067 -0.487315,-0.76966 -0.892918,-5.82438 -0.90134,-11.23271 -0.01155,-7.41513 -0.322712,-9.73173 -1.265313,-9.42015 -0.840869,0.27795 -1.413653,3.6601 -1.75,10.33333 l -0.5,9.92015 -3.266136,-0.1492 c -6.405837,-0.29263 -6.233864,0.17136 -6.233864,-16.81942 0,-14.37693 0.153981,-15.68536 2.071576,-17.60296 1.139367,-1.13936 2.426573,-4.176858 2.860457,-6.749998 0.828553,-4.9137 4.555392,-15.00761 6.139485,-16.62842 0.573187,-0.58647 0.928482,1.97392 0.928482,6.69098 0,4.20254 0.399012,7.88759 0.886693,8.18899 2.050216,1.26711 2.890668,-2.76135 3.532085,-16.92997 l 0.679054,-15 15.081351,-37.84824 c 10.099245,-25.345119 15.363608,-37.402851 15.935772,-36.5 0.469931,0.741532 0.86131,7.770387 0.869732,15.619679 0.01523,14.19761 0.02808,14.277257 2.483956,15.396228 1.357754,0.618634 2.188225,1.578515 1.845492,2.133069 -0.364883,0.590393 -0.119643,0.697095 0.591713,0.257453 1.49192,-0.922057 7.278444,1.334604 6.529505,2.546413 -0.296576,0.479869 0.113626,0.621966 0.911559,0.31577 4.16445,-1.59805 1.39095,3.472123 -12.291861,22.470472 -8.280278,11.497024 -15.061942,21.512412 -15.070364,22.256418 -0.01208,1.067479 -0.185066,1.085291 -0.820309,0.08447 -0.919986,-1.449437 -6.722128,-3.340645 -7.589105,-2.473669 -0.977801,0.977801 -0.6331,16.08817 0.381309,16.71511 0.526119,0.32516 2.647174,-1.67329 4.713454,-4.44099 2.066281,-2.7677 4.223319,-5.05218 4.793419,-5.07662 0.5701,-0.0244 3.62977,-3.399436 6.799266,-7.499996 3.169497,-4.10056 6.094497,-7.455917 6.5,-7.456348 0.405504,-4.34e-4 0.512279,13.387061 0.237279,29.750001 l -0.5,29.750778 -6,2.02412 -6,2.02412 -0.5,9.47588 -0.5,9.47588 -3.5,0.16067 c -1.925,0.0884 -6.581897,-0.40692 -10.34866,-1.10062 z m 79.53224,-80.310048 c 0.25934,-2.253926 0.75625,-2.701013 2.75465,-2.478439 3.39206,0.377796 3.65407,0.916476 1.56732,3.222308 -2.65825,2.937331 -4.70501,2.585057 -4.32197,-0.743869 z"
         id="path5158"
         inkscape:connector-curvature="0"
         sodipodi:nodetypes="cscccsscssssssssscsssssssscsssssssssssssscsssccccccsssss" />
      <path
         style="fill:#ba2b33"
         d="m 74.32143,144.8811 c -0.55,-0.15268 -2.2375,-0.55052 -3.75,-0.88411 l -2.75,-0.60652 0,-9.35595 0,-9.35595 3.125,-0.625 c 6.041744,-1.20835 5.875,-1.48695 5.875,9.81598 0,10.07515 -0.348202,11.60885 -2.5,11.01155 z m -44.417048,-3.99969 c -4.079377,-0.75646 -7.784986,-1.95531 -8.234688,-2.66411 -0.449701,-0.7088 -0.824529,-5.71373 -0.832951,-11.12206 -0.01155,-7.41513 -0.322712,-9.73173 -1.265313,-9.42015 -0.840869,0.27795 -1.413653,3.6601 -1.75,10.33333 l -0.5,9.92015 -3.266136,-0.1492 c -6.386301,-0.29174 -6.2353,0.0985 -6.218551,-16.06942 0.01445,-13.95009 0.771525,-19.05333 2.428785,-16.37183 1.406068,2.27506 2.555902,-0.17483 2.555902,-5.445738 0,-5.16003 3.797507,-17.66132 6.048855,-19.91266 0.601527,-0.60153 0.951145,1.85749 0.951145,6.68983 0,4.20254 0.399012,7.88759 0.886693,8.18899 2.044858,1.26379 2.891321,-2.74779 3.550484,-16.82659 L 24.956061,63.135339 40.005459,25.161785 c 10.231331,-25.816315 15.32728,-37.534894 15.917372,-36.603384 1.503542,2.37347 1.103499,29.974724 -0.460775,31.79143 -0.747655,0.868308 -6.372655,11.211879 -12.5,22.985715 L 31.82143,64.74252 l 0,11.343022 c 0,8.43802 0.321741,11.34303 1.256283,11.34303 0.690956,0 5.978456,-6.05317 11.75,-13.4515 5.771545,-7.398319 10.943717,-13.641431 11.493717,-13.87358 0.660111,-0.278624 0.830056,9.637517 0.5,29.17466 l -0.5,29.596748 -6,2.02684 -6,2.02683 -0.5,9.5 -0.5,9.5 -3,0.16411 c -1.65,0.0903 -6.337672,-0.45481 -10.417048,-1.21127 z M 40.827591,69.707164 c -0.0034,-0.671775 -1.467973,-1.600202 -3.254632,-2.063171 -1.786659,-0.46297 -3.381142,-1.53067 -3.543295,-2.372668 -0.288267,-1.496849 19.915466,-41.186442 22.157309,-43.527331 1.475142,-1.540314 14.183834,3.728963 14.034432,5.818956 -0.05501,0.769588 -6.102066,9.715721 -13.437894,19.880296 -7.335828,10.164575 -13.925545,19.607008 -14.643814,20.983186 -0.71827,1.376177 -1.308718,1.952506 -1.312106,1.280732 z m 68.177419,-9.028592 c 0.25934,-2.253926 0.75625,-2.701013 2.75465,-2.478439 3.39206,0.377796 3.65407,0.916476 1.56732,3.222308 -2.65825,2.937331 -4.70501,2.585057 -4.32197,-0.743869 z"
         id="path5156"
         inkscape:connector-curvature="0" />
      <path
         style="fill:#109548"
         d="m 29.904382,140.88141 c -4.079377,-0.75646 -7.784986,-1.95531 -8.234688,-2.66411 -0.449701,-0.7088 -0.824529,-5.71373 -0.832951,-11.12206 -0.01155,-7.41513 -0.322712,-9.73173 -1.265313,-9.42015 -0.840869,0.27795 -1.413653,3.6601 -1.75,10.33333 l -0.5,9.92015 -3.266136,-0.1492 c -6.386301,-0.29174 -6.2353,0.0985 -6.218551,-16.06942 0.01445,-13.95009 0.771525,-19.05333 2.428785,-16.37183 1.406068,2.27506 2.555902,-0.17483 2.555902,-5.445738 0,-5.16003 3.797507,-17.66132 6.048855,-19.91266 0.601527,-0.60153 0.951145,1.85749 0.951145,6.68983 0,4.20254 0.399012,7.88759 0.886693,8.18899 2.044858,1.26379 2.891321,-2.74779 3.550484,-16.82659 L 24.956061,63.135339 40.005459,25.161785 c 10.231331,-25.816315 15.32728,-37.534894 15.917372,-36.603384 1.503542,2.37347 1.103499,29.974724 -0.460775,31.79143 -0.747655,0.868308 -6.372655,11.211879 -12.5,22.985715 L 31.82143,64.74252 l 0,11.343022 c 0,8.43802 0.321741,11.34303 1.256283,11.34303 0.690956,0 5.978456,-6.05317 11.75,-13.4515 5.771545,-7.398319 10.943717,-13.641431 11.493717,-13.87358 0.660111,-0.278624 0.830056,9.637517 0.5,29.17466 l -0.5,29.596748 -6,2.02684 -6,2.02683 -0.5,9.5 -0.5,9.5 -3,0.16411 c -1.65,0.0903 -6.337672,-0.45481 -10.417048,-1.21127 z M 109.00501,60.678572 c 0.25934,-2.253926 0.75625,-2.701013 2.75465,-2.478439 3.39206,0.377796 3.65407,0.916476 1.56732,3.222308 -2.65825,2.937331 -4.70501,2.585057 -4.32197,-0.743869 z"
         id="path5154"
         inkscape:connector-curvature="0" />
    </g>
  </g>
</svg>
