<?xml version="1.0" encoding="UTF-8" standalone="no"?>
<!-- Created with Inkscape (http://www.inkscape.org/) -->

<svg
   xmlns:dc="http://purl.org/dc/elements/1.1/"
   xmlns:cc="http://creativecommons.org/ns#"
   xmlns:rdf="http://www.w3.org/1999/02/22-rdf-syntax-ns#"
   xmlns:svg="http://www.w3.org/2000/svg"
   xmlns="http://www.w3.org/2000/svg"
   xmlns:sodipodi="http://sodipodi.sourceforge.net/DTD/sodipodi-0.dtd"
   xmlns:inkscape="http://www.inkscape.org/namespaces/inkscape"
   id="svg3055"
   version="1.1"
   inkscape:version="0.48.4 r9939"
   width="800"
   height="800"
   sodipodi:docname="noprof.svg"
   inkscape:export-filename="/home/kkleidal/code/new_website/new_website/images/noprof.png"
   inkscape:export-xdpi="90"
   inkscape:export-ydpi="90">
  <metadata
     id="metadata3061">
    <rdf:RDF>
      <cc:Work
         rdf:about="">
        <dc:format>image/svg+xml</dc:format>
        <dc:type
           rdf:resource="http://purl.org/dc/dcmitype/StillImage" />
        <dc:title></dc:title>
      </cc:Work>
    </rdf:RDF>
  </metadata>
  <defs
     id="defs3059" />
  <sodipodi:namedview
     pagecolor="#ffffff"
     bordercolor="#666666"
     borderopacity="1"
     objecttolerance="10"
     gridtolerance="10"
     guidetolerance="10"
     inkscape:pageopacity="0"
     inkscape:pageshadow="2"
     inkscape:window-width="1920"
     inkscape:window-height="1031"
     id="namedview3057"
     showgrid="false"
     inkscape:zoom="0.77618148"
     inkscape:cx="219.25197"
     inkscape:cy="521.00334"
     inkscape:window-x="0"
     inkscape:window-y="25"
     inkscape:window-maximized="1"
     inkscape:current-layer="layer2" />
  <g
     inkscape:groupmode="layer"
     id="layer1"
     inkscape:label="Layer"
     transform="translate(0,411)">
    <rect
       style="fill:#c4ccdf;fill-opacity:1"
       id="rect3087"
       width="800"
       height="800"
       x="0"
       y="-411" />
    <rect
       style="fill:#c4ccdf;fill-opacity:1"
       id="rect3089"
       width="48.313442"
       height="7.7301512"
       x="471.53922"
       y="261.45251" />
  </g>
  <g
     inkscape:groupmode="layer"
     id="layer2"
     inkscape:label="Layer#1"
     transform="translate(0,411)">
    <path
       style="fill:#ffffff"
       d="m 58.076122,386.32663 c 0.008,-2.98942 6.03006,-12.50629 13.8047,-21.81945 15.96479,-19.12408 68.979168,-46.6256 176.071338,-91.33807 l 31.71976,-13.24343 5.51957,-13.12257 c 3.03579,-7.21741 5.51959,-14.55881 5.51959,-16.31425 0,-10.98428 7.95349,-22.82734 15.33024,-22.82734 4.6384,0 5.87304,-4.95091 8.22495,-32.98226 l 2.11756,-25.23811 -6.25074,-7.2923 C 300.93469,131.41766 292.69717,113.43172 289.92936,98.035623 286.8071,80.667952 284.9861,74.809042 280.94748,69.137349 279.12896,66.583451 276.42172,60.74347 274.93141,56.159601 272.005,47.158628 267.27658,6.3563699 268.5816,1.365998 c 0.43823,-1.67580337 3.29795,-4.0919582 6.35494,-5.3692589 l 5.55815,-2.3223452 -0.88043,-11.4191349 c -0.48424,-6.280544 -0.18169,-33.292231 0.67232,-60.026005 l 1.55274,-48.606874 5.50233,-11.64554 c 7.35434,-15.56528 30.37856,-38.6031 49.13505,-49.16407 15.57879,-8.77174 41.80181,-18.7112 62.40726,-23.65457 8.16335,-1.95844 20.86769,-5.05244 28.23187,-6.87556 7.36418,-1.82312 21.00136,-3.74178 30.30485,-4.26368 21.1776,-1.188 23.06656,0.45432 11.80503,10.26357 -11.43106,9.95693 -10.88203,13.68999 3.49784,23.7826 27.2767,19.14433 46.80365,38.87981 55.24975,55.83978 l 4.58423,9.20523 0.83684,59.891346 0.83684,59.8913402 4.1842,2.0932856 c 3.76356,1.88285411 4.1945,3.129627 4.2868,12.4024392 0.25616,25.736529 -4.17088,48.426027 -11.58601,59.380567 -2.05085,3.029792 -5.84899,13.410076 -8.44033,23.067331 -6.07013,22.621961 -9.64033,31.523951 -17.33453,43.222181 l -6.25736,9.51365 -0.52463,29.75782 -0.52462,29.75783 5.17809,1.80509 c 6.11562,2.13192 9.31476,7.6328 11.0088,18.92954 1.34457,8.96617 10.6376,30.8392 14.35199,33.78027 1.27064,1.0061 10.59495,5.02527 20.7207,8.93147 51.2805,19.78242 110.77962,45.68789 147.28365,64.12618 19.55634,9.87794 25.24429,13.65466 34.39276,22.83629 8.91511,8.94742 21.67545,27.23231 21.67545,31.05976 0,0.47421 -156.27967,0.8622 -347.28815,0.8622 -276.71808,0 -347.286888,-0.42511 -347.281898,-2.0921 z"
       id="path3065"
       inkscape:connector-curvature="0" />
    <flowRoot
       xml:space="preserve"
       id="flowRoot3091"
       style="font-size:40px;font-style:normal;font-weight:normal;line-height:125%;letter-spacing:0px;word-spacing:0px;fill:#000000;fill-opacity:1;stroke:none;font-family:Sans"><flowRegion
         id="flowRegion3093"><rect
           id="rect3095"
           width="161.689"
           height="44.448368"
           x="255.73917"
           y="341.33075" /></flowRegion><flowPara
         id="flowPara3097">S</flowPara></flowRoot>    <text
       xml:space="preserve"
       style="font-size:66.94711304px;font-style:normal;font-weight:normal;line-height:125%;letter-spacing:0px;word-spacing:0px;fill:#c4ccdf;fill-opacity:1;stroke:none;font-family:Sans"
       x="336.07104"
       y="336.75052"
       id="text3099"
       sodipodi:linespacing="125%"><tspan
         sodipodi:role="line"
         id="tspan3101"
         x="336.07104"
         y="336.75052"
         style="font-weight:bold;-inkscape-font-specification:Sans Bold">SPA</tspan></text>
  </g>
</svg>
